<?xml version="1.0" encoding="UTF-8"?>
<svg id="OBJECTS" xmlns="http://www.w3.org/2000/svg" xmlns:xlink="http://www.w3.org/1999/xlink" viewBox="0 0 183.44 183.44">
  <defs>
    <style>
      .cls-1 {
        fill: #fff;
      }

      .cls-2 {
        clip-path: url(#clippath-2);
      }

      .cls-3 {
        fill: #dd4b5d;
      }

      .cls-4 {
        clip-path: url(#clippath-1);
      }

      .cls-5 {
        fill: #332532;
      }

      .cls-6 {
        fill: #f7aab0;
      }

      .cls-7 {
        fill: #fc90a2;
      }

      .cls-8 {
        clip-path: url(#clippath);
      }

      .cls-9 {
        fill: none;
      }

      .cls-10 {
        fill: #f3757a;
      }
    </style>
    <clipPath id="clippath">
      <circle class="cls-9" cx="91.72" cy="91.72" r="74.75" transform="translate(-37.99 91.72) rotate(-45)"/>
    </clipPath>
    <clipPath id="clippath-1">
      <path class="cls-9" d="m59.44,46.62c-9.54,9.74-14.55,23.97-12.37,37.43,1.51,9.33,6.22,17.85,8.41,27.04,2.04,8.55,1.84,17.62-.58,26.06-2.02,7.07-5.55,14.72-2.44,21.38,2.67,5.73,9.29,8.36,15.43,9.84,14.55,3.49,29.71,3.43,44.65,2.61,5.96-.33,12.32-.92,17-4.63,6.42-5.08,7.64-14.45,6.28-22.52-1.36-8.07-4.75-15.73-5.67-23.86-2.12-18.72,9.04-37.19,6.26-55.82-1.33-8.91-5.97-17.3-12.85-23.11-14.11-11.91-35.52-11.72-51.38-3.69-4.71,2.39-9.05,5.5-12.74,9.27Z"/>
    </clipPath>
    <clipPath id="clippath-2">
      <path class="cls-9" d="m85.62,121.97c3.44,4.21,10.07,5.87,14.6,2.85,2.39-1.59,3.94-4.22,4.75-6.97.81-2.75.93-5.66.97-8.53.02-1.37-.03-2.88-.94-3.9-1.02-1.14-2.74-1.26-4.28-1.28-3.67-.04-7.35.06-11.02.28-2.27.14-4.93.09-6.35,2.17-2.8,4.12-.54,11.92,2.27,15.37Z"/>
    </clipPath>
  </defs>
  <g class="cls-8">
    <circle class="cls-5" cx="91.72" cy="91.72" r="74.75" transform="translate(-37.99 91.72) rotate(-45)"/>
    <g class="cls-4">
      <path class="cls-10" d="m59.44,46.62c-9.54,9.74-14.55,23.97-12.37,37.43,1.51,9.33,6.22,17.85,8.41,27.04,2.04,8.55,1.84,17.62-.58,26.06-2.02,7.07-5.55,14.72-2.44,21.38,2.67,5.73,9.29,8.36,15.43,9.84,14.55,3.49,29.71,3.43,44.65,2.61,5.96-.33,12.32-.92,17-4.63,6.42-5.08,7.64-14.45,6.28-22.52-1.36-8.07-4.75-15.73-5.67-23.86-2.12-18.72,9.04-37.19,6.26-55.82-1.33-8.91-5.97-17.3-12.85-23.11-14.11-11.91-35.52-11.72-51.38-3.69-4.71,2.39-9.05,5.5-12.74,9.27Z"/>
      <path class="cls-1" d="m77.38,59.04c-2.86,5.88-2.13,13.32,1.73,18.6,3.86,5.28,10.67,8.21,17.17,7.5,6.5-.72,12.47-5.02,15.29-10.92,1.77-3.7,2.34-7.98,1.45-11.98-1.32-5.96-6.04-10.69-11.69-12.73-5.88-2.12-10.97-1.21-16.44,1.77-3.21,1.75-5.91,4.47-7.52,7.77Z"/>
      <path d="m85.19,68.58c.29,1.58,1.99,2.45,3.54,2.9,3.93,1.14,16.9,2.14,16.11-5.1-.49-4.49-8.8-3.97-11.82-3.54-2.61.37-8.49,2.09-7.84,5.74Z"/>
      <g class="cls-2">
        <path d="m85.62,121.97c3.44,4.21,10.07,5.87,14.6,2.85,2.39-1.59,3.94-4.22,4.75-6.97.81-2.75.93-5.66.97-8.53.02-1.37-.03-2.88-.94-3.9-1.02-1.14-2.74-1.26-4.28-1.28-3.67-.04-7.35.06-11.02.28-2.27.14-4.93.09-6.35,2.17-2.8,4.12-.54,11.92,2.27,15.37Z"/>
        <path class="cls-1" d="m85.07,113.93c-.08.66-.15,1.38.19,1.96.5.82,1.61.98,2.57,1.05.86.06,1.84.08,2.44-.55.49-.52.55-1.3.57-2.01.06-2.12.08-4.24.06-6.35-.01-1.39.56-4.97-.55-5.99-.88-.8-2.62-.32-3.31.49-.9,1.05-.91,2.8-1.07,4.09-.3,2.44-.59,4.88-.89,7.31Z"/>
        <path class="cls-1" d="m96.97,113.87c.07.66.17,1.38.64,1.86.67.69,1.79.58,2.74.43.85-.14,1.81-.35,2.25-1.09.36-.62.23-1.39.09-2.09-.43-2.07-.89-4.14-1.4-6.2-.33-1.35-.59-4.97-1.91-5.7-1.04-.58-2.63.29-3.11,1.24-.63,1.23-.24,2.93-.1,4.23.27,2.44.54,4.88.8,7.33Z"/>
        <path class="cls-1" d="m92.99,122.18c.2-.64.4-1.33.16-1.96-.34-.9-1.4-1.25-2.33-1.5-.83-.22-1.8-.41-2.49.09-.58.42-.77,1.18-.92,1.88-.44,2.07-.85,4.15-1.21,6.24-.24,1.36-1.46,4.79-.55,5.99.72.95,2.52.79,3.35.12,1.07-.87,1.4-2.59,1.79-3.83.74-2.34,1.47-4.69,2.21-7.03Z"/>
        <path class="cls-1" d="m101.67,120.88c-.13-.66-.29-1.36-.8-1.8-.73-.63-1.83-.43-2.77-.19-.84.21-1.77.5-2.14,1.28-.31.64-.11,1.4.09,2.09.61,2.03,1.25,4.05,1.93,6.05.45,1.31,1.02,4.9,2.4,5.52,1.08.49,2.59-.52,2.99-1.5.52-1.28-.01-2.94-.27-4.22-.48-2.41-.96-4.82-1.44-7.23Z"/>
      </g>
      <path class="cls-7" d="m74.62,120.72c-.92,5.84,0,11.69-.92,17.53-.75,5-3.54,11.02-8.36,12.27.79,1.16,2.43,1.6,3.88,1.5,3.88-.28,7.11-3.39,8.58-6.99,1.46-3.6,1.46-7.62,1.17-11.5-.29-3.88-.83-7.77-.37-11.63.46-3.86,2.09-7.79,5.28-10.01,2.19-1.52,4.88-2.09,7.56-2.19-.64-.29-1.31-.52-2.05-.66-7.69-1.23-13.84,4.31-14.76,11.69Z"/>
      <path class="cls-7" d="m113.99,132.41c2.77-9.23.62-20.3-9.84-22.76-1.23-.31-2.46-.62-3.69-.31-1.4.4-2.8.28-4.12.66,5.69.92,11.16,3.87,13.42,9.05,1.56,3.58,1.37,7.66.86,11.53-.52,3.87-1.33,7.76-.94,11.64.4,3.88,2.28,7.88,5.79,9.6,1.79.88,4.29.79,5.62-.49-4.52-5.6-9.26-11.07-7.1-18.91Z"/>
      <path class="cls-3" d="m121.83,150.14c.73-2.24-1.26-4.34-2.05-6.56-1.18-3.32.41-6.91,1.66-10.21,4.24-11.18,4.63-24.09-.41-34.94-3.81-8.19-10.91-14.96-19.45-18.01-8.05-2.88-17.56-.33-24.66,4.17-4.42,2.8-8.14,6.75-10.63,11.37-4.98,9.26-5.15,20.73-1.43,30.57,1.07,2.83,2.44,5.56,3.19,8.49.75,2.93.8,6.19-.68,8.83-1.13,2.02-3.19,4.14-2.26,6.26.06.15.14.28.23.41,4.82-1.25,7.61-7.27,8.36-12.27.92-5.84,0-11.69.92-17.53.92-7.38,7.07-12.92,14.76-11.69.74.15,1.42.37,2.05.66.51-.02,1.02-.02,1.53-.01,1.12.03,2.25.13,3.38.31,1.32-.37,2.71-.26,4.12-.66,1.23-.31,2.46,0,3.69.31,10.46,2.46,12.61,13.53,9.84,22.76-2.17,7.85,2.58,13.31,7.1,18.91.33-.32.59-.71.74-1.18Z"/>
      <path class="cls-6" d="m89.48,140.36c1.95-1.57,4.19-2.85,6.65-3.31,2.46-.46,5.16-.02,7.11,1.54,2.18,1.73,3.17,4.53,3.89,7.22,2.23,8.27,2.94,16.91,2.43,25.45-.15,2.46-.48,5.11-2.2,6.88-1.7,1.74-4.3,2.17-6.73,2.37-6.32.52-17.54,1.76-21.24-5.02-3.46-6.34-.91-16.63,1.48-22.83,1.82-4.71,4.64-9.1,8.59-12.29Z"/>
      <path class="cls-3" d="m52.04,69.14c1.18-1.23,2.9-2.57,4.4-1.76.95.52,1.3,1.68,1.57,2.73,1.05,4.15,2.1,8.31,3.15,12.46-5.04,2.96-9.93,6.21-14.61,9.71-.78-2.44-1.57-4.89-2.35-7.33-.51-1.6-1.87-4.03-1.39-5.74.48-1.71,2.83-3.35,4.01-4.59,1.74-1.82,3.48-3.65,5.23-5.47Z"/>
      <path class="cls-3" d="m56.48,88.88c.67,1.67,2.01,2.97,3.12,4.4,1.11,1.43,2.03,3.21,1.66,4.97-.23,1.09-.93,2.02-1.61,2.9-1.99,2.59-3.98,5.18-5.96,7.77-.16.2-.35.43-.6.43-.32.01-.54-.32-.69-.6-1.29-2.44-5.39-7.46-4.24-10.28.7-1.73,2.82-3.38,4.05-4.76.46-.52,4.46-4.4,4.29-4.84Z"/>
      <path class="cls-3" d="m61.77,85.21c-.45.41-.91.85-1.1,1.44-.38,1.2.51,2.39,1.35,3.33.64.72,1.48,1.51,2.43,1.31.5-.11.89-.48,1.26-.84,1.07-1.05,2.19-2.17,2.6-3.61.42-1.48.27-4.18-1.59-4.53-1.77-.33-3.8,1.88-4.94,2.91Z"/>
      <path class="cls-3" d="m58.39,62.48c2.13,2.6,3.38,5.9,3.51,9.25.04.99.07,2.16.9,2.7.71.47,1.69.21,2.38-.29,1.96-1.41,2.31-4.12,2.5-6.53.19-2.43,1.36-9.43-1.19-10.98-2.15-1.31-8.08,5.89-8.11,5.85Z"/>
      <path class="cls-3" d="m54.85,57.56c.17,1.87.1,3.85-.85,5.47-.56.95-1.38,1.71-2.19,2.45-2.1,1.93-4.15,4.11-6.42,5.82-.77-3.1-.99-8.11.66-11.05,1.71-3.07,5.56-6.21,8.33-8.2.08,1.85.31,3.67.48,5.51Z"/>
      <path class="cls-3" d="m58,50.08c-.1.58.24,1.14.56,1.64.95,1.46,1.9,2.91,2.85,4.37,2.03-1.45,4.06-2.9,6.09-4.35,2.47-1.77,2.86-6.41-.89-6.8-2.3-.24-8.21,2.8-8.62,5.14Z"/>
      <path class="cls-3" d="m69.67,54.24c-.38.48-.78,1.09-.56,1.66.22.57.92.74,1.53.83,1.6.26,3.21.51,4.81.77.51-3.36,2.36-6.56,2.01-9.95-.03-.24-4.08,2.34-4.43,2.67-1.27,1.2-2.28,2.65-3.36,4.02Z"/>
      <path class="cls-3" d="m75.49,43.83c.61-2.61,1.22-5.22,1.83-7.83.16-.67.31-1.42-.03-2.03-.47-.84-1.6-.97-2.56-.94-2.74.1-10.27,1-9.89,4.98.39,4.12,7.58,5.16,10.65,5.82Z"/>
      <path class="cls-3" d="m58.09,107.99c.15,2.19,1.14,4.21,1.73,6.32.59,2.11.72,4.58-.65,6.29-.94,1.18-2.42,1.77-3.83,2.32-.5.19-1.07.39-1.57.17-1.86-.81-2.6-6.28-2.1-8.13.77-2.85,4.19-5.31,6.42-6.97Z"/>
      <path class="cls-3" d="m78.28,45.13c2.76,1.16,5.74,2.35,8.66,1.7-.04-2.33.98-11.09-3.08-10.14-1.68.39-5.59,8.44-5.58,8.44Z"/>
      <path class="cls-3" d="m72.03,79.65c1.65-.39-.15-5.01-1.91-5.1-2.11-.11-4.21,2.92-4.79,4.59,1.89,1.05,4.63,1.02,6.7.52Z"/>
      <path class="cls-3" d="m59.55,125.45c1.06,3.88,2.12,7.76,3.17,11.64.16.57.3,1.23-.01,1.73-.25.4-.73.59-1.17.76-2.6.96-5.2,1.92-7.8,2.88-.21.08-1.75-10.38-1.41-11.62.76-2.73,4.84-4.51,7.22-5.39Z"/>
      <path class="cls-3" d="m55.26,145.37c.84-.22,1.78-.39,2.52.06.65.4.95,1.17,1.2,1.89,1.08,3.06,2.16,6.12,3.25,9.18.22.62.43,1.3.17,1.9-.27.61-.94.92-1.56,1.18-2.28.94-4.57,1.87-6.85,2.81-.89.36-5.79-10.33-6.04-11.49-.78-3.73,4.62-4.82,7.31-5.53Z"/>
      <path class="cls-3" d="m62.97,141.05c.91-.04,1.68.48,1.88,2.04.14,1.15-.31,2.35-1.18,3.12-.3.26-.68.48-1.07.44-.39-.04-.71-.32-1-.59-.69-.65-1.38-1.3-2.08-1.95-.72-.68,1.63-2.99,3.45-3.06Z"/>
      <path class="cls-3" d="m135.64,69.14c-1.18-1.23-2.9-2.57-4.4-1.76-.95.52-1.3,1.68-1.57,2.73-1.05,4.15-2.1,8.31-3.15,12.46,5.04,2.96,9.93,6.21,14.61,9.71.78-2.44,1.57-4.89,2.35-7.33.51-1.6,1.88-4.03,1.39-5.74-.48-1.71-2.83-3.35-4.01-4.59-1.74-1.82-3.48-3.65-5.23-5.47Z"/>
      <path class="cls-3" d="m131.2,88.88c-.67,1.67-2.01,2.97-3.12,4.4-1.11,1.43-2.03,3.21-1.66,4.97.23,1.09.93,2.02,1.61,2.9,1.99,2.59,3.98,5.18,5.96,7.77.16.2.35.43.6.43.32.01.54-.32.69-.6,1.29-2.44,5.39-7.46,4.24-10.28-.7-1.73-2.82-3.38-4.05-4.76-.46-.52-4.46-4.4-4.29-4.84Z"/>
      <path class="cls-3" d="m125.91,85.21c.45.41.91.85,1.1,1.44.38,1.2-.51,2.39-1.35,3.33-.64.72-1.48,1.51-2.43,1.31-.5-.11-.89-.48-1.26-.84-1.07-1.05-2.19-2.17-2.6-3.61-.42-1.48-.27-4.18,1.59-4.53,1.77-.33,3.8,1.88,4.94,2.91Z"/>
      <path class="cls-3" d="m129.3,62.48c-2.13,2.6-3.38,5.9-3.51,9.25-.04.99-.07,2.16-.9,2.7-.71.47-1.69.21-2.38-.29-1.96-1.41-2.31-4.12-2.5-6.53-.19-2.43-1.36-9.43,1.19-10.98,2.15-1.31,8.08,5.89,8.11,5.85Z"/>
      <path class="cls-3" d="m132.83,57.56c-.17,1.87-.1,3.85.85,5.47.56.95,1.38,1.71,2.19,2.45,2.1,1.93,4.15,4.11,6.42,5.82.77-3.1.99-8.11-.66-11.05-1.71-3.07-5.56-6.21-8.33-8.2-.08,1.85-.31,3.67-.48,5.51Z"/>
      <path class="cls-3" d="m129.68,50.08c.1.58-.24,1.14-.56,1.64-.95,1.46-1.9,2.91-2.85,4.37-2.03-1.45-4.06-2.9-6.09-4.35-2.47-1.77-2.86-6.41.89-6.8,2.3-.24,8.21,2.8,8.62,5.14Z"/>
      <path class="cls-3" d="m118.02,54.24c.38.48.78,1.09.56,1.66-.22.57-.92.74-1.53.83-1.6.26-3.21.51-4.81.77-.51-3.36-2.36-6.56-2.01-9.95.03-.24,4.08,2.34,4.43,2.67,1.27,1.2,2.28,2.65,3.36,4.02Z"/>
      <path class="cls-3" d="m112.19,43.83c-.61-2.61-1.22-5.22-1.83-7.83-.16-.67-.31-1.42.03-2.03.47-.84,1.6-.97,2.56-.94,2.74.1,10.27,1,9.89,4.98-.39,4.12-7.58,5.16-10.65,5.82Z"/>
      <path class="cls-3" d="m129.59,107.99c-.15,2.19-1.14,4.21-1.73,6.32-.59,2.11-.72,4.58.65,6.29.94,1.18,2.42,1.77,3.83,2.32.5.19,1.07.39,1.57.17,1.86-.81,2.6-6.28,2.1-8.13-.77-2.85-4.19-5.31-6.42-6.97Z"/>
      <path class="cls-3" d="m109.4,45.13c-2.76,1.16-5.74,2.35-8.66,1.7.04-2.33-.98-11.09,3.08-10.14,1.68.39,5.59,8.44,5.58,8.44Z"/>
      <path class="cls-3" d="m115.66,79.65c-1.65-.39.15-5.01,1.91-5.1,2.11-.11,4.21,2.92,4.79,4.59-1.89,1.05-4.63,1.02-6.7.52Z"/>
      <path class="cls-3" d="m128.13,125.45c-1.06,3.88-2.12,7.76-3.17,11.64-.16.57-.3,1.23.01,1.73.25.4.73.59,1.17.76,2.6.96,5.2,1.92,7.8,2.88.21.08,1.75-10.38,1.41-11.62-.76-2.73-4.84-4.51-7.22-5.39Z"/>
      <path class="cls-3" d="m132.42,145.37c-.84-.22-1.78-.39-2.52.06-.65.4-.95,1.17-1.2,1.89-1.08,3.06-2.16,6.12-3.25,9.18-.22.62-.43,1.3-.17,1.9.27.61.94.92,1.56,1.18,2.28.94,4.57,1.87,6.85,2.81.89.36,5.79-10.33,6.04-11.49.78-3.73-4.62-4.82-7.31-5.53Z"/>
      <path class="cls-3" d="m124.71,141.05c-.91-.04-1.68.48-1.88,2.04-.14,1.15.31,2.35,1.18,3.12.3.26.68.48,1.07.44.39-.04.71-.32,1-.59.69-.65,1.38-1.3,2.08-1.95.72-.68-1.63-2.99-3.45-3.06Z"/>
    </g>
  </g>
</svg>