<?xml version="1.0" encoding="UTF-8"?>
<svg id="OBJECTS" xmlns="http://www.w3.org/2000/svg" xmlns:xlink="http://www.w3.org/1999/xlink" viewBox="0 0 183.44 183.44">
  <defs>
    <style>
      .cls-1 {
        fill: #f9b7b2;
      }

      .cls-2 {
        fill: #fff;
      }

      .cls-3 {
        clip-path: url(#clippath-1);
      }

      .cls-4 {
        fill: #fec368;
      }

      .cls-5 {
        fill: #e58b89;
      }

      .cls-6 {
        fill: #332532;
      }

      .cls-7 {
        fill: #fcebdb;
      }

      .cls-8 {
        clip-path: url(#clippath);
      }

      .cls-9 {
        fill: none;
      }

      .cls-10 {
        fill: #f7ddc0;
      }

      .cls-11 {
        fill: #ef9bb7;
      }
    </style>
    <clipPath id="clippath">
      <circle class="cls-9" cx="91.72" cy="91.72" r="66.93" transform="translate(-37.99 91.72) rotate(-45)"/>
    </clipPath>
    <clipPath id="clippath-1">
      <path class="cls-9" d="m121.64,78.82c-.48-4.44-1.36-8.85-3.86-12.6-3.92-5.88-11.34-9.17-18.74-9.86-6.8-.63-13.53.14-19.71,2.74-5.94,2.5-10.95,4.54-14.62,9.92-3.3,4.84-4.51,10.64-5.5,16.29-2.07,11.77-3.48,23.64-4.12,35.55-.57,10.54-2.22,22.91,3.21,32.64.74,1.33,1.63,2.6,2.65,3.77,3.48,3.95,8.49,6.55,13.7,8.16,9.77,3.03,20.38,2.88,30.56,1.45,4.91-.69,10.04-1.79,13.63-4.97,3.69-3.27,5.11-8.15,5.9-12.84,2.41-14.28.24-28.59-.89-42.83-.62-7.87-1.25-15.73-1.87-23.6-.1-1.26-.2-2.54-.34-3.82Z"/>
    </clipPath>
  </defs>
  <g class="cls-8">
    <circle class="cls-6" cx="91.72" cy="91.72" r="66.93" transform="translate(-37.99 91.72) rotate(-45)"/>
    <g>
      <path class="cls-10" d="m121.64,78.82c-.48-4.44-1.36-8.85-3.86-12.6-3.92-5.88-11.34-9.17-18.74-9.86-6.8-.63-13.53.14-19.71,2.74-5.94,2.5-10.95,4.54-14.62,9.92-3.3,4.84-4.51,10.64-5.5,16.29-2.07,11.77-3.48,23.64-4.12,35.55-.57,10.54-2.22,22.91,3.21,32.64.74,1.33,1.63,2.6,2.65,3.77,3.48,3.95,8.49,6.55,13.7,8.16,9.77,3.03,20.38,2.88,30.56,1.45,4.91-.69,10.04-1.79,13.63-4.97,3.69-3.27,5.11-8.15,5.9-12.84,2.41-14.28.24-28.59-.89-42.83-.62-7.87-1.25-15.73-1.87-23.6-.1-1.26-.2-2.54-.34-3.82Z"/>
      <g>
        <g>
          <path class="cls-10" d="m62.79,53.9c-4.19-2.57-9.96-2.98-14.29-.61-4.33,2.37-6.77,7.58-5.23,12.03.92,2.67,3.07,4.84,5.49,6.52,2.64,1.83,5.74,3.18,9.02,3.48,3.28.3,6.75-.53,9.19-2.6,6.45-5.45,2.02-15.03-4.17-18.83Z"/>
          <path class="cls-1" d="m55.24,55.92c-1.51-.62-3.27-.92-4.79-.33-1.52.59-2.57,2.32-1.9,3.72.63,1.31,2.33,1.78,3.83,2.1-.9.43-1.91.99-2.03,1.93-.13.95.81,1.79,1.82,1.98,1,.2,2.04-.08,3.02-.35-4.05,4.14,6.74,8.01,7.61,2.26.65-4.26-3.61-9.68-7.57-11.3Z"/>
        </g>
        <path class="cls-11" d="m55.69,82.51c-.17-2.17-1.73-4.17-3.85-5.09-1.26-.54-2.71-.72-4.04-.36-2.05.55-3.56,2.37-3.84,4.34-.59,4.24,3.99,8.68,8.54,6.51,2.08-.99,3.37-3.23,3.19-5.4Zm-5.25,3.64c-4.14.27-4.8-5.23-.51-5.59,4.41-.37,4.75,5.31.51,5.59Z"/>
        <path class="cls-4" d="m47.76,77.36c-.11.61-.22,1.24-.09,1.84.13.61.55,1.2,1.19,1.38.56.16,1.19-.04,1.64-.4.45-.35.75-.84,1-1.34.9-1.74,1.34-3.65,1.78-5.53.21-.89.42-1.8.29-2.71-.27-1.96-2.77-3.26-4.2-1.43-1.38,1.76-1.23,6.05-1.62,8.18Z"/>
        <path class="cls-4" d="m50.19,96.67c1.13-.36,1.37-1.72,1.4-2.83.05-2.31-.03-4.62-.24-6.93-.05-.5-.11-1.02-.36-1.46-.96-1.7-2.31-.38-2.6.76-.29,1.16-.19,2.54-.28,3.73-.1,1.34-1.56,7.91,2.08,6.73Z"/>
        <path class="cls-11" d="m48.67,111.42c.83.57,1.45.08,2.07-1.35,1.08-2.49,2.06-5.11,2.02-7.83-.03-1.92-1.04-4.21-1.69-6-1.35-3.73-2.72-.98-3.84,1.27-.75,1.5-1.72,3.27-1.93,4.94-.3,2.4.98,6.17,2.49,8.09.32.41.61.7.88.88Z"/>
      </g>
      <g>
        <g>
          <path class="cls-10" d="m120.65,53.9c4.19-2.57,9.96-2.98,14.29-.61,4.33,2.37,6.77,7.58,5.23,12.03-.92,2.67-3.07,4.84-5.49,6.52-2.64,1.83-5.74,3.18-9.02,3.48-3.28.3-6.75-.53-9.19-2.6-6.45-5.45-2.02-15.03,4.17-18.83Z"/>
          <path class="cls-1" d="m128.2,55.92c1.51-.62,3.27-.92,4.79-.33,1.52.59,2.57,2.32,1.9,3.72-.63,1.31-2.33,1.78-3.83,2.1.9.43,1.91.99,2.03,1.93.13.95-.81,1.79-1.82,1.98-1,.2-2.04-.08-3.02-.35,4.05,4.14-6.74,8.01-7.61,2.26-.65-4.26,3.61-9.68,7.57-11.3Z"/>
        </g>
        <path class="cls-11" d="m130.94,87.91c4.55,2.17,9.13-2.27,8.54-6.51-.27-1.96-1.79-3.79-3.84-4.34-1.33-.36-2.79-.18-4.04.36-2.12.92-3.68,2.92-3.85,5.09-.17,2.17,1.11,4.4,3.19,5.4Zm2.56-7.35c4.29.36,3.64,5.86-.51,5.59-4.25-.28-3.91-5.96.51-5.59Z"/>
        <path class="cls-4" d="m135.68,77.36c.11.61.22,1.24.09,1.84-.13.61-.55,1.2-1.19,1.38-.56.16-1.19-.04-1.64-.4-.45-.35-.75-.84-1-1.34-.9-1.74-1.34-3.65-1.78-5.53-.21-.89-.42-1.8-.29-2.71.27-1.96,2.77-3.26,4.2-1.43,1.38,1.76,1.23,6.05,1.62,8.18Z"/>
        <path class="cls-4" d="m133.25,96.67c-1.13-.36-1.37-1.72-1.4-2.83-.05-2.31.03-4.62.24-6.93.05-.5.11-1.02.36-1.46.96-1.7,2.31-.38,2.6.76.29,1.16.19,2.54.28,3.73.1,1.34,1.56,7.91-2.08,6.73Z"/>
        <path class="cls-11" d="m134.77,111.42c-.83.57-1.45.08-2.07-1.35-1.08-2.49-2.06-5.11-2.02-7.83.03-1.92,1.04-4.21,1.69-6,1.35-3.73,2.72-.98,3.84,1.27.75,1.5,1.72,3.27,1.93,4.94.3,2.4-.98,6.17-2.49,8.09-.32.41-.61.7-.88.88Z"/>
      </g>
      <g>
        <path d="m81.35,74.94c-.22-.35-.44-.72-.54-1.12-.1-.4-.06-.85.2-1.18s.78-.5,1.17-.31c.29.14.46.42.61.68.92,1.62,1.83,3.25,2.75,4.87.7,1.25-1.26,1.01-1.83.4-.92-.99-1.65-2.22-2.35-3.34Z"/>
        <path d="m90.45,72.37c0-.41.01-.83.15-1.22.14-.39.41-.76.82-.92.41-.16.94-.06,1.18.29.17.25.16.58.14.88-.1,1.83-.21,3.66-.31,5.49-.08,1.4-1.64.28-1.79-.53-.25-1.28-.2-2.69-.19-3.99Z"/>
        <path d="m75.25,79.81c-.31-.29-.63-.59-.83-.95-.21-.36-.29-.8-.13-1.19.16-.38.61-.67,1.04-.59.32.06.56.29.78.51,1.34,1.35,2.67,2.69,4.01,4.04,1.03,1.03-.93,1.28-1.66.83-1.16-.73-2.21-1.74-3.2-2.66Z"/>
        <g>
          <path d="m102.41,74.94c.22-.35.44-.72.54-1.12.1-.4.06-.85-.2-1.18s-.78-.5-1.17-.31c-.29.14-.46.42-.61.68-.92,1.62-1.83,3.25-2.75,4.87-.7,1.25,1.26,1.01,1.83.4.92-.99,1.65-2.22,2.35-3.34Z"/>
          <path d="m108.5,79.81c.31-.29.63-.59.83-.95.21-.36.29-.8.13-1.19-.16-.38-.61-.67-1.04-.59-.32.06-.56.29-.78.51-1.34,1.35-2.67,2.69-4.01,4.04-1.03,1.03.93,1.28,1.66.83,1.16-.73,2.21-1.74,3.2-2.66Z"/>
        </g>
      </g>
      <path class="cls-2" d="m79.29,79.55c-2.56,2.23-4.31,5.18-4.59,8.65-.3,3.68.99,7.63,4.08,9.94,2.31,1.72,5.32,2.37,8.25,2.76,3.02.4,6.1.59,9.1.08,3-.51,5.92-1.77,7.94-3.89,2.24-2.36,3.2-5.61,3.06-8.75-.18-3.98-2.13-7.92-5.49-10.39-6.53-4.81-16.53-3.46-22.34,1.6Z"/>
      <path d="m85.54,87.86c-.55,1.84.19,3.93,1.72,5.2,1.53,1.27,3.77,1.72,5.77,1.27,1.95-.44,3.7-1.77,4.39-3.52.72-1.82.23-4-1.22-5.4-3.02-2.93-9.48-1.53-10.67,2.46Z"/>
      <g>
        <path class="cls-2" d="m73.48,125.12c.74,2.94,2.12,5.78,4.4,7.91.94.88,2.02,1.62,3.18,2.22.22-2.35.45-4.7.58-7.07-2.84-.64-5.59-1.65-8.16-3.07Z"/>
        <path class="cls-2" d="m84.97,128.76c-.06,2.62-.22,5.25-.26,7.87,1.48.39,3.01.61,4.54.67,2.32.09,4.69-.18,6.89-.86-.1-2.63,0-5.27-.23-7.88-3.64.55-7.33.65-10.94.19Z"/>
        <path d="m95.91,128.57c.24,2.61.13,5.25.23,7.88,1.16-.36,2.28-.83,3.32-1.43-.2-2.34-.25-4.7-.34-7.07-1.06.24-2.14.45-3.22.62Z"/>
        <path class="cls-2" d="m106.8,125.48c-2.46,1.04-5.04,1.87-7.68,2.48.08,2.37.13,4.73.34,7.07.32-.18.64-.38.94-.59,3.17-2.16,5.24-5.45,6.4-8.96Z"/>
        <path d="m81.65,128.18c-.14,2.37-.36,4.71-.58,7.07,1.15.59,2.38,1.05,3.65,1.38.04-2.62.19-5.25.26-7.87-1.12-.14-2.23-.33-3.33-.58Z"/>
        <path d="m106.8,125.48c.19-.59.36-1.18.51-1.77.37-1.53,1.17-4.77,1.15-7.63-1.54.73-3.1,1.53-4.91,2.09-3.79.88-7.26,2.35-11.05,2.64-6.31.23-14.84-.07-19.89-3.95.04,2.53.17,5.07.7,7.55.05.24.11.47.17.71,10.05,5.55,22.79,4.82,33.32.36Z"/>
        <path class="cls-2" d="m88.48,112.53c-1.36-.04-2.73-.14-4.08-.29-.46,2.74-.78,5.52-1,8.3,3.15.36,6.35.37,9.11.27,1.17-.09,2.31-.29,3.44-.56-.23-2.64-.32-5.3-.54-7.93-2.3.21-4.62.28-6.93.21Z"/>
        <path class="cls-2" d="m108.47,116.08c-.02-2.47-.64-4.66-2.7-5.22-1.42-.39-3.27.04-5.03.5,0,2.52-.07,5.05.03,7.55.92-.27,1.84-.52,2.78-.74,1.81-.56,3.36-1.36,4.91-2.09Z"/>
        <path d="m100.74,111.36c-1.1.29-2.16.59-3.07.71-.75.1-1.51.19-2.27.26.22,2.64.31,5.29.54,7.93,1.61-.38,3.21-.87,4.83-1.34-.1-2.5-.03-5.02-.03-7.55Z"/>
        <path d="m79.89,111.57c-.79,2.61-1.44,5.24-1.91,7.91,1.72.52,3.56.86,5.42,1.07.22-2.79.54-5.56,1-8.3-1.51-.16-3.02-.39-4.51-.67Z"/>
        <path class="cls-2" d="m78.09,111.19c-1.55-.36-3.42-.71-4.57.32-.88.79-.93,2.06-.92,3.19,0,.72,0,1.44.02,2.16,1.52,1.17,3.36,2.01,5.36,2.61.47-2.67,1.12-5.3,1.91-7.91-.6-.12-1.2-.24-1.8-.38Z"/>
      </g>
      <g class="cls-3">
        <path class="cls-7" d="m81.9,148.13c2.17-2.58,5.25-4.71,8.76-5.01,5.04-.43,9.7,3.08,11.89,7.32s2.45,9.09,2.65,13.8c.09,2.14.12,4.46-1.25,6.18-1.14,1.43-3.04,2.14-4.87,2.66-6.08,1.72-12.61,2.04-18.85.95-6.21-1.09-4.55-6.68-3.99-11.17.65-5.22,2.11-10.52,5.66-14.73Z"/>
        <path class="cls-5" d="m61.83,71.47c1.09-.75,2.39-1.29,3.75-1.3,1.36-.01,2.76.58,3.44,1.67.68,1.09.45,2.66-.65,3.39-.67.44-1.53.53-2.28.84-.75.31-1.45,1.05-1.18,1.77.31.85,1.54.9,2.44,1.2,1.42.47,2.34,1.99,2.04,3.36-.3,1.37-1.79,2.43-3.3,2.34-1.08-.06-2.4-.55-3.06.24-.48.57-.18,1.42.3,2,.48.57,1.13,1.04,1.42,1.72.49,1.18-.44,2.6-1.74,2.96-1.3.37-2.76-.16-3.7-1.07-.94-.91-1.43-2.15-1.72-3.39-.67-2.93.22-5.71.31-8.61.08-2.82,1.45-5.42,3.94-7.12Z"/>
        <path class="cls-5" d="m58.07,97.7c1.53-1.2,3.65-2.1,5.5-1.4,1.72.65,2.62,2.57,2.38,4.28s-1.41,3.21-2.8,4.35c-.55.45-1.2.95-1.23,1.64-.04.99,1.15,1.54,2.1,1.99,1.3.62,2.52,1.59,2.92,2.9.4,1.31-.33,2.96-1.75,3.27-.9.2-1.82-.14-2.73-.32-.9-.18-2.02-.12-2.52.6-.52.74-.08,1.74.55,2.4.63.66,1.46,1.17,1.91,1.94,1.06,1.83-.83,4.28-3.06,4.42-2.24.14-4.27-1.46-5.16-3.37-.89-1.91-.87-4.07-.74-6.15.38-6.16-1.18-12,4.64-16.56Z"/>
        <path class="cls-5" d="m54.04,151.23c-2.15-3.14-1.66-7.72-2.06-11.29-.43-3.82-.08-7.86,2.52-10.92,1.24-1.46,3.47-2.71,5.15-1.69,1.1.67,1.41,2.04,1.39,3.26-.02,1.22-.28,2.47.07,3.65s1.6,2.27,2.87,1.94c1.07-.28,1.62-1.38,2.58-1.91,1.34-.74,3.26-.04,3.93,1.28.66,1.31.18,2.97-.92,4-.79.74-1.84,1.19-2.73,1.83-.89.64-1.66,1.61-1.5,2.64.16,1.05,1.23,1.8,2.31,2.14,1.08.35,2.25.42,3.32.81,1.82.66,3.25,2.39,3.07,4.21s-2.26,3.36-4.12,2.82c-2.67-.76-3.57-4.77-6.36-4.64-2.3.1-3.29,3.05-5.51,3.63-1.52.4-3.16-.51-4.01-1.75Z"/>
        <path class="cls-5" d="m119.4,69.12c-1.09-.75-2.39-1.29-3.75-1.3-1.36-.01-2.76.58-3.44,1.67-.68,1.09-.45,2.66.65,3.39.67.44,1.53.53,2.28.84s1.45,1.05,1.18,1.77c-.31.85-1.54.9-2.44,1.2-1.42.47-2.34,1.99-2.04,3.36.3,1.37,1.79,2.43,3.3,2.34,1.08-.06,2.4-.55,3.06.24.48.57.18,1.42-.3,2-.48.57-1.13,1.04-1.42,1.72-.49,1.18.44,2.6,1.74,2.96s2.76-.16,3.7-1.07c.94-.91,1.43-2.15,1.72-3.39.66-2.93-.22-5.71-.31-8.61-.08-2.82-1.45-5.42-3.94-7.11Z"/>
        <path class="cls-5" d="m123.16,95.35c-1.53-1.2-3.65-2.1-5.5-1.4-1.72.65-2.62,2.57-2.38,4.28.24,1.71,1.41,3.21,2.8,4.35.55.45,1.2.95,1.23,1.64.04.99-1.15,1.54-2.1,1.99-1.3.62-2.52,1.59-2.92,2.9-.4,1.31.33,2.96,1.75,3.27.9.2,1.82-.14,2.73-.32.9-.18,2.02-.12,2.52.6.52.74.08,1.74-.55,2.4-.63.66-1.46,1.17-1.91,1.94-1.06,1.83.83,4.28,3.06,4.42,2.24.14,4.27-1.46,5.16-3.37.89-1.91.87-4.07.74-6.15-.38-6.16,1.18-12-4.64-16.56Z"/>
        <path class="cls-5" d="m127.19,148.89c2.15-3.14,1.66-7.72,2.06-11.29.43-3.82.08-7.86-2.52-10.92-1.24-1.46-3.47-2.71-5.15-1.69-1.1.67-1.41,2.04-1.39,3.26.02,1.22.28,2.47-.07,3.65-.35,1.18-1.6,2.27-2.87,1.94-1.07-.28-1.62-1.38-2.58-1.91-1.34-.74-3.26-.04-3.93,1.28-.66,1.31-.18,2.97.92,4,.79.74,1.84,1.19,2.73,1.83.89.64,1.66,1.61,1.5,2.64-.16,1.05-1.23,1.8-2.31,2.14-1.08.35-2.25.42-3.32.81-1.82.66-3.25,2.39-3.07,4.21.18,1.81,2.26,3.36,4.12,2.82,2.67-.76,3.57-4.77,6.36-4.64,2.3.1,3.29,3.05,5.51,3.63,1.52.4,3.16-.51,4.01-1.75Z"/>
      </g>
      <path class="cls-1" d="m86.03,38.58c-1.51-.63-3.23-.94-4.81-.5-1.58.43-2.95,1.74-3.03,3.27-.08,1.53,1.44,3.06,3.07,2.84-2.3-.02-4.59.62-6.5,1.82-.83.52-1.64,1.23-1.75,2.16-.13,1.04.7,2.02,1.71,2.48,1.01.46,2.17.51,3.3.56-1.87.45-3.65,1.42-4.72,2.92-1.07,1.5-1.32,3.55-.35,5.11.97,1.55,3.25,2.37,4.99,1.59-1.68.8-2.02,3.15-.89,4.56,1.13,1.41,3.29,1.86,5.12,1.4s3.33-1.68,4.49-3.06c.08,2.09,2.08,3.96,4.33,4.03,2.25.08,4.39-1.65,4.63-3.73,1.07,1.88,3.63,3.04,5.78,2.31,2.15-.73,3.24-3.54,1.81-5.2,2.41.15,4.8-1.49,5.37-3.67.56-2.18-.78-4.65-3-5.53,2.93-1.22,4.08-5.12,2.22-7.55-1.85-2.43-6.19-2.73-8.4-.56,1.21-2.54-.14-5.96-2.94-6.93-1.83-.64-4.02,0-5.32,1.3-.48.49-.95,2.04-1.58,2.22-.64.18-2.84-1.53-3.51-1.81Z"/>
      <path class="cls-5" d="m84.18,51.46c-.6,2.18.36,4.66,2.31,5.99,1.96,1.33,4.79,1.42,6.84.21,3.96-2.32,3.41-7.3-.06-9.73-3.22-2.25-8.14.05-9.09,3.52Z"/>
      <path class="cls-5" d="m68.53,100.56c-.92.56-1.42,1.59-1.55,2.61-.13,1.02.06,2.05.25,3.06.11.61.25,1.27.71,1.72.66.65,1.8.66,2.71.35,1.7-.58,2.96-2.15,3.05-3.84.12-2.27-2.51-5.52-5.17-3.9Z"/>
      <path class="cls-5" d="m68.57,96.25c3.9-.03,5.95-5.87,1.23-6.07-1.43-.06-2.12.35-2.29,1.6-.06.47.29.98.2,1.49-.08.5-.68.98-.72,1.43-.08.99.34,1.57,1.57,1.55Z"/>
      <path class="cls-5" d="m106.71,102.5c-.16,5.86,7.61,5.53,7.21.08-.14-1.94-1.29-3.93-2.95-5.12-3.19-2.28-4.2,2.87-4.26,5.03Z"/>
      <path class="cls-5" d="m110.19,92.48c.83.95,2.51,1,3.57.27,2.01-1.38,2.09-5.34-.86-5.71-2.76-.35-4.27,3.66-2.71,5.44Z"/>
      <path class="cls-5" d="m104.4,70.25c.06.32.24.58.64.76,1.16.51,3.52-.64,4.26-1.41,1.5-1.54,1.59-5.11-1.33-5.34-2.03-.16-3.19,3.24-3.45,4.62-.09.5-.2.97-.12,1.37Z"/>
      <path class="cls-5" d="m69.6,68.02c.01.7.29,1.37.57,2.02.26.59.55,1.18,1,1.66.45.48,1.1.83,1.79.8,1.31-.06,2.12-1.5,1.91-2.7-.18-1.04-1.22-2.82-2.21-3.42-1.48-.9-3.09,0-3.06,1.64Z"/>
      <path class="cls-5" d="m64.13,126.81c-.3,1.31-1.66,2.5-1.21,3.77.32.9,1.51,1.34,2.49,1.13.99-.22,1.76-.95,2.26-1.77,1.13-1.86,1.11-4.85-.63-6.43-2.77-2.52-2.58,1.87-2.91,3.31Z"/>
      <path class="cls-5" d="m112.64,119.69c-.82.47-1.2,1.41-1.36,2.3-.33,1.94.19,4,1.43,5.6,1.31,1.7,3.04,1.46,3.23-.61.13-1.39.14-2.27.6-3.64.81-2.39-.96-5.33-3.9-3.64Z"/>
      <path class="cls-5" d="m100.9,142.96c-.28.64-.49,1.42-.05,1.97.47.59,1.46.58,2.16.23.7-.35,1.21-.94,1.81-1.41s1.42-.84,2.17-.61c.45.14.82.48,1.29.57.51.1,1.05-.15,1.37-.53,1.56-1.84-.23-4.56-2.47-4.62-3.05-.08-5.21,1.94-6.28,4.4Z"/>
      <path class="cls-5" d="m74.01,146.61c1.67.36,3.5-.48,4.36-1.85,1.18-1.87.42-7.18-2.74-5.02-1.78,1.21-5.45,6.04-1.62,6.87Z"/>
    </g>
  </g>
</svg>