<?xml version="1.0" encoding="UTF-8"?>
<svg id="OBJECTS" xmlns="http://www.w3.org/2000/svg" xmlns:xlink="http://www.w3.org/1999/xlink" viewBox="0 0 183.44 183.44">
  <defs>
    <style>
      .cls-1 {
        fill: #fff;
      }

      .cls-2 {
        clip-path: url(#clippath-2);
      }

      .cls-3 {
        fill: #7f3814;
      }

      .cls-4 {
        fill: #b46133;
      }

      .cls-5 {
        clip-path: url(#clippath-1);
      }

      .cls-6 {
        fill: #f05161;
      }

      .cls-7 {
        fill: #332532;
      }

      .cls-8 {
        clip-path: url(#clippath);
      }

      .cls-9 {
        fill: none;
      }

      .cls-10 {
        fill: #ec9b5e;
      }

      .cls-11 {
        fill: #fdd2b9;
      }
    </style>
    <clipPath id="clippath">
      <circle class="cls-9" cx="91.72" cy="91.72" r="66.93" transform="translate(-37.99 91.72) rotate(-45)"/>
    </clipPath>
    <clipPath id="clippath-1">
      <path class="cls-9" d="m65.15,54.41c-6.72,7.12-8.95,17.25-10.73,26.88-3.48,18.83-6.26,37.87-6.27,57.02,0,5.12.3,10.57,3.23,14.78,3.72,5.33,10.64,7.24,17.05,8.38,10.75,1.91,21.69,2.74,32.6,2.45,8.47-.22,17.46-1.31,24.07-6.61,5.68-4.56,8.81-11.7,9.96-18.89s.51-14.54-.12-21.79c-.81-9.22-1.62-18.44-2.43-27.66-.93-10.62-2.11-21.89-8.65-30.32-5.55-7.14-13.97-10.61-22.69-11.96-7.02-1.09-15.88-1.3-22.75.28-5.01,1.15-9.73,3.69-13.27,7.44Z"/>
    </clipPath>
    <clipPath id="clippath-2">
      <path class="cls-9" d="m62.25,101.9c-1.64-.29-3.45-.58-4.88.27-1.85,1.09-2.27,3.55-2.45,5.69-.47,5.66-.41,11.88,3.15,16.31,2.89,3.59,7.51,5.26,11.97,6.45,11.08,2.95,22.67,4,34.11,3.12,5.64-.43,11.53-1.45,15.92-5.02,3.86-3.14,6.1-7.99,6.73-12.92.47-3.71.8-10.41-1.98-13.4-2.68-2.87-7.86-.73-11.08-.2-10.87,1.79-21.93,2.4-32.93,1.82-6.21-.32-12.41-1.03-18.54-2.11Z"/>
    </clipPath>
  </defs>
  <g class="cls-8">
    <circle class="cls-7" cx="91.72" cy="91.72" r="66.93" transform="translate(-37.99 91.72) rotate(-45)"/>
    <g>
      <g class="cls-5">
        <path class="cls-10" d="m65.15,54.41c-6.72,7.12-8.95,17.25-10.73,26.88-3.48,18.83-6.26,37.87-6.27,57.02,0,5.12.3,10.57,3.23,14.78,3.72,5.33,10.64,7.24,17.05,8.38,10.75,1.91,21.69,2.74,32.6,2.45,8.47-.22,17.46-1.31,24.07-6.61,5.68-4.56,8.81-11.7,9.96-18.89s.51-14.54-.12-21.79c-.81-9.22-1.62-18.44-2.43-27.66-.93-10.62-2.11-21.89-8.65-30.32-5.55-7.14-13.97-10.61-22.69-11.96-7.02-1.09-15.88-1.3-22.75.28-5.01,1.15-9.73,3.69-13.27,7.44Z"/>
        <g>
          <path class="cls-4" d="m61.11,86.69c-.03.21-.16.42-.39.62-1.37,1.16-3.55,1.27-5.21,1.75-1.46.42-2.9.88-4.34,1.37-1.58.54-3.29,1.35-3.21-.95.06-1.59.96-3.02,1.32-4.53.46-1.93.09-4.6,2.27-4.62,1.68-.01,4.76,2.45,6.21,3.29.99.57,3.55,1.89,3.36,3.08Z"/>
          <path class="cls-4" d="m51.12,102.83c.75-1.5,2.37-3.07,3.47-4.34,1.32-1.52,2.64-3.05,3.96-4.57.2-.23.41-.48.49-.78.08-.3-.02-.67-.3-.8-.23-.11-.51-.03-.76.06-1.72.59-3.42,1.26-5.09,1.99-1.3.57-2.82,1.01-3.88,1.97-1.34,1.22-1.03,6.64,1.07,7.09.42.09.78-.28,1.04-.61Z"/>
          <path class="cls-4" d="m59.76,80c-.31.27-.64.61-.59,1.01.06.42.5.65.89.82,1.19.5,2.37,1.01,3.56,1.51.74.31,2.12,1.26,2.9,1.27,1.76.01.55-2.34.29-3.29-.28-1.04-.49-2.51-1.19-3.37-2.13-2.59-3.78.25-5.87,2.06Z"/>
          <path class="cls-4" d="m70.74,57.49c.52.25,1.15.48,1.66.21.61-.32.69-1.15.66-1.84-.08-1.88-.43-3.75-1.03-5.53-1.27-3.78-5.45-2.01-6.66.95-1.31,3.18,3.12,5.13,5.37,6.21Z"/>
          <path class="cls-4" d="m55.26,130.97c-.05.21-.2.41-.49.57-.78.44-2.46.34-3.36.47-1.12.16-2.23.31-3.35.47-.69.1-1.42.18-2.04-.13-.84-.43-1.17-1.46-1.31-2.39-.4-2.69.4-6.01,3.65-4.48,2.02.95,4.31,1.99,5.91,3.61.54.55,1.13,1.3.98,1.9Z"/>
          <path class="cls-4" d="m53.99,137.38c.76-.14,1.53-.27,2.29-.13.75.14,1.5.62,1.72,1.36.29.98-.39,1.96-1.03,2.76-2.11,2.62-4.23,5.23-6.34,7.85-.75.93-1.79,1.96-2.94,1.64-.88-.24-1.35-1.16-1.73-1.98-.66-1.46-1.32-2.92-1.98-4.38-.87-1.92-1.75-4.76.91-5.45,2.95-.77,6.1-1.11,9.1-1.66Z"/>
          <path class="cls-4" d="m55.44,150.48c-.36.67-.68,1.63-.07,2.1.39.3.94.19,1.41.06,1.67-.45,3.33-.94,4.97-1.49,1.07-.36,2.18-.77,2.93-1.62,1.17-1.33,1.09-3.41.28-4.99-.87-1.69-3.42-5.01-4.99-2.43-1.65,2.7-3.03,5.6-4.53,8.38Z"/>
          <path class="cls-4" d="m60.24,154.17c.43-.19.91-.39,1.36-.26.55.16.86.72,1.04,1.26.7,2.1.19,4.55-1.3,6.19-.67.74-1.6,1.33-2.59,1.22-.69-.08-1.29-.48-1.86-.88-1.05-.73-2.1-1.46-3.15-2.18-1.32-.91-1.43-1.22,0-2.07,2.1-1.23,4.32-2.2,6.49-3.28Z"/>
        </g>
        <g>
          <path class="cls-4" d="m121.79,86.69c.03.21.16.42.39.62,1.37,1.16,3.55,1.27,5.21,1.75,1.46.42,2.9.88,4.34,1.37,1.58.54,3.29,1.35,3.21-.95-.06-1.59-.96-3.02-1.32-4.53-.46-1.93-.09-4.6-2.27-4.62-1.68-.01-4.76,2.45-6.21,3.29-.99.57-3.55,1.89-3.36,3.08Z"/>
          <path class="cls-4" d="m131.78,102.83c-.75-1.5-2.37-3.07-3.47-4.34-1.32-1.52-2.64-3.05-3.96-4.57-.2-.23-.41-.48-.49-.78-.08-.3.02-.67.3-.8.23-.11.51-.03.76.06,1.72.59,3.42,1.26,5.09,1.99,1.3.57,2.82,1.01,3.88,1.97,1.34,1.22,1.03,6.64-1.07,7.09-.42.09-.78-.28-1.04-.61Z"/>
          <path class="cls-4" d="m123.14,80c.31.27.64.61.59,1.01-.06.42-.5.65-.89.82-1.19.5-2.37,1.01-3.56,1.51-.74.31-2.12,1.26-2.9,1.27-1.76.01-.55-2.34-.29-3.29.28-1.04.49-2.51,1.19-3.37,2.13-2.59,3.78.25,5.87,2.06Z"/>
          <path class="cls-4" d="m112.16,57.49c-.52.25-1.15.48-1.66.21-.61-.32-.69-1.15-.66-1.84.08-1.88.43-3.75,1.03-5.53,1.27-3.78,5.45-2.01,6.66.95,1.31,3.18-3.12,5.13-5.37,6.21Z"/>
          <path class="cls-4" d="m127.64,130.97c.05.21.2.41.49.57.78.44,2.46.34,3.36.47,1.12.16,2.23.31,3.35.47.69.1,1.42.18,2.04-.13.84-.43,1.17-1.46,1.31-2.39.4-2.69-.4-6.01-3.65-4.48-2.02.95-4.31,1.99-5.91,3.61-.54.55-1.13,1.3-.98,1.9Z"/>
          <path class="cls-4" d="m128.91,137.38c-.76-.14-1.53-.27-2.29-.13-.75.14-1.5.62-1.72,1.36-.29.98.39,1.96,1.03,2.76,2.11,2.62,4.23,5.23,6.34,7.85.75.93,1.79,1.96,2.94,1.64.88-.24,1.35-1.16,1.73-1.98.66-1.46,1.32-2.92,1.98-4.38.87-1.92,1.75-4.76-.91-5.45-2.95-.77-6.09-1.11-9.1-1.66Z"/>
          <path class="cls-4" d="m127.46,150.48c.36.67.68,1.63.07,2.1-.39.3-.94.19-1.41.06-1.67-.45-3.33-.94-4.97-1.49-1.07-.36-2.18-.77-2.93-1.62-1.17-1.33-1.09-3.41-.28-4.99.87-1.69,3.42-5.01,4.99-2.43,1.65,2.7,3.03,5.6,4.53,8.38Z"/>
          <path class="cls-4" d="m122.66,154.17c-.43-.19-.91-.39-1.36-.26-.55.16-.86.72-1.04,1.26-.7,2.1-.19,4.55,1.3,6.19.67.74,1.6,1.33,2.59,1.22.69-.08,1.29-.48,1.86-.88l3.15-2.18c1.32-.91,1.43-1.22,0-2.07-2.1-1.23-4.32-2.2-6.49-3.28Z"/>
        </g>
      </g>
      <path class="cls-1" d="m78.54,73.11c-1.45,0-3.01.03-4.21.85-2.05,1.4-2.14,4.45-1.3,6.79,1.61,4.44,5.7,7.66,10.19,9.15,4.48,1.49,9.34,1.44,14.03.94,3.05-.33,6.27-.94,8.5-3.05,3.4-3.22,5.34-13.37-.79-14.61-3.92-.79-8.62-.1-12.61-.09-4.6,0-9.21,0-13.81.01Z"/>
      <path d="m91.18,76.01c-.81,0-1.63.26-2.37.8-3.57,2.61-.93,8.5,3.39,7.51,2.28-.52,3.77-3.24,2.98-5.43-.65-1.79-2.29-2.89-4-2.88Z"/>
      <path class="cls-11" d="m51.41,49.95c-.59-.97-1.54-2.16-2.58-1.72-.68.29-.9,1.13-1.02,1.86-.57,3.54-.84,7.19-.09,10.7.75,3.51,2.61,6.89,5.58,8.9,2.98,2,7.14,2.39,10.16.44,3.58-2.31,4.94-8.39.88-10.77-5.04-2.95-9.65-4-12.93-9.42Z"/>
      <path class="cls-11" d="m132.03,49.95c.59-.97,1.54-2.16,2.58-1.72.68.29.9,1.13,1.02,1.86.57,3.54.84,7.19.09,10.7-.75,3.51-2.61,6.89-5.58,8.9-2.98,2-7.14,2.39-10.16.44-3.58-2.31-4.94-8.39-.88-10.77,5.04-2.95,9.65-4,12.93-9.42Z"/>
      <path class="cls-3" d="m74.88,61.31c.11-.41.3-.83.56-1.24.93-1.45,2.94-2.09,4.53-1.45-.63-.79-.08-2.05.81-2.51.89-.47,1.96-.37,2.96-.27s2.07.18,2.96-.3c1.1-.6,1.86-2.01,3.11-1.91,1.16.1,1.79,1.52,2.9,1.86.79.24,1.63-.11,2.38-.46.75-.36,1.56-.74,2.37-.57.81.18,1.43,1.23.89,1.86,1.21-.56,2.52-1.13,3.84-.9,1.32.22,2.51,1.63,1.99,2.86.8-1.8,2.79-.16,3.28.85.71,1.47.22,4.01-.31,5.42-.49,1.28-1.43,2.45-2.72,2.91-2.36.83-4.75-.91-7.02-1.97-3.26-1.53-7.14-1.72-10.53-.5-2,.72-3.87,1.91-5.98,2.2-3.36.45-6.92-2.6-6.02-5.87Z"/>
      <path d="m62.25,101.9c-1.64-.29-3.45-.58-4.88.27-1.85,1.09-2.27,3.55-2.45,5.69-.47,5.66-.41,11.88,3.15,16.31,2.89,3.59,7.51,5.26,11.97,6.45,11.08,2.95,22.67,4,34.11,3.12,5.64-.43,11.53-1.45,15.92-5.02,3.86-3.14,6.1-7.99,6.73-12.92.47-3.71.8-10.41-1.98-13.4-2.68-2.87-7.86-.73-11.08-.2-10.87,1.79-21.93,2.4-32.93,1.82-6.21-.32-12.41-1.03-18.54-2.11Z"/>
      <g class="cls-2">
        <path class="cls-1" d="m62.25,107.92c-.22,1.04-.42,2.13-.09,3.14.42,1.29,1.65,2.18,2.96,2.56,1.3.38,2.69.32,4.04.26,1.42-.06,3.05-.24,3.83-1.43.41-.62.48-1.4.54-2.15.21-2.6.42-5.2.62-7.81.07-.85.13-1.73-.16-2.53-1.12-3.07-5.92-2.65-8.22-1.27-2.76,1.66-2.92,6.37-3.52,9.22Z"/>
        <path class="cls-1" d="m60.7,131.56c-.33,1.01-.64,2.08-.42,3.12.28,1.33,1.41,2.35,2.67,2.86,1.26.51,2.64.6,3.99.69,1.41.09,3.06.08,3.96-1.01.47-.58.63-1.34.76-2.08l1.45-7.7c.16-.84.32-1.71.11-2.54-.79-3.18-5.61-3.27-8.04-2.14-2.92,1.36-3.58,6.02-4.48,8.8Z"/>
        <path class="cls-1" d="m78.19,109.08c-.2,1.04-.39,2.14-.05,3.14.44,1.29,1.68,2.16,2.99,2.52s2.69.29,4.05.21c1.42-.08,3.05-.28,3.81-1.48.4-.63.46-1.41.51-2.15.17-2.6.35-5.21.52-7.81.06-.85.11-1.73-.19-2.53-1.16-3.06-5.96-2.58-8.23-1.17-2.74,1.69-2.84,6.41-3.4,9.27Z"/>
        <path class="cls-1" d="m93.82,109.68c-.09,1.06-.16,2.17.28,3.13.57,1.23,1.9,1.97,3.24,2.19,1.34.22,2.71,0,4.05-.22,1.4-.23,3-.6,3.63-1.87.33-.67.31-1.45.28-2.2-.1-2.61-.2-5.22-.3-7.83-.03-.85-.07-1.74-.46-2.5-1.48-2.92-6.2-1.93-8.31-.29-2.54,1.97-2.15,6.67-2.4,9.57Z"/>
        <path class="cls-1" d="m110.9,107.86c.03,1.06.08,2.17.63,3.08.7,1.16,2.11,1.75,3.47,1.81,1.36.07,2.69-.3,4-.67,1.36-.39,2.91-.94,3.4-2.27.25-.7.14-1.48.03-2.21-.4-2.58-.79-5.16-1.19-7.74-.13-.84-.27-1.72-.74-2.43-1.8-2.73-6.38-1.22-8.29.65-2.3,2.25-1.38,6.87-1.31,9.78Z"/>
        <path class="cls-1" d="m110.09,132.41c.03,1.06.08,2.17.63,3.08.7,1.16,2.11,1.75,3.47,1.81,1.36.07,2.69-.3,4-.67,1.36-.39,2.91-.94,3.4-2.27.25-.7.14-1.48.03-2.21-.4-2.58-.79-5.16-1.19-7.74-.13-.84-.27-1.72-.74-2.43-1.8-2.73-6.38-1.22-8.29.65-2.3,2.25-1.38,6.87-1.31,9.78Z"/>
      </g>
      <path class="cls-6" d="m88.51,124.79c.94.46,1.81,1.09,2.52,1.86,1.58-1.77,3.95-2.82,6.32-2.79,4.55.06,6.88,3.51,8.15,7.44,1.73,5.35-.61,11.64-5.25,14.82-4.63,3.18-11.13,3.19-15.95.3-4.08-2.45-9-9.05-8.49-14.14.39-3.87,2.73-7.24,6.67-8.2,2.01-.49,4.17-.21,6.02.7Z"/>
    </g>
  </g>
</svg>