<?xml version="1.0" encoding="UTF-8"?>
<svg id="OBJECTS" xmlns="http://www.w3.org/2000/svg" xmlns:xlink="http://www.w3.org/1999/xlink" viewBox="0 0 183.44 183.44">
  <defs>
    <style>
      .cls-1 {
        fill: #fff;
      }

      .cls-2 {
        clip-path: url(#clippath-2);
      }

      .cls-3 {
        fill: #b9d669;
      }

      .cls-4 {
        clip-path: url(#clippath-1);
      }

      .cls-5 {
        fill: #332532;
      }

      .cls-6 {
        clip-path: url(#clippath);
      }

      .cls-7 {
        fill: none;
      }

      .cls-8 {
        fill: #ede4c0;
      }

      .cls-9 {
        fill: #9ab537;
      }

      .cls-10 {
        fill: #f3757a;
      }
    </style>
    <clipPath id="clippath">
      <circle class="cls-7" cx="91.72" cy="91.72" r="66.93" transform="translate(-37.99 91.72) rotate(-45)"/>
    </clipPath>
    <clipPath id="clippath-1">
      <path class="cls-7" d="m53.69,118.4c-1.94-9.26-3.02-18.78-1.99-28.18,1.04-9.4,4.3-18.71,10.33-26,8.53-10.32,22.52-15.83,35.79-14.11,13.27,1.72,25.4,10.62,31.01,22.78,5.79,12.54,4.69,27.14,2.02,40.69-2.24,11.35-5.5,22.5-9.72,33.26-1.86,4.74-4,9.54-7.71,13.02-5.41,5.07-13.35,6.52-20.75,6.08-4.99-.3-9.88-1.35-14.78-2.3-3.35-.65-6.77-.34-8.82-3.33-5.2-7.62-8.49-17.69-11.29-26.4-1.63-5.09-3.01-10.27-4.1-15.5Z"/>
    </clipPath>
    <clipPath id="clippath-2">
      <path class="cls-7" d="m97.66,95.01c-6.87,1.19-14.11,1.56-20.67-.79-2.04-.73-4-1.72-6.1-2.22-2.11-.5-4.48-.44-6.26.79-1.96,1.36-2.81,3.85-3.05,6.23-.62,6.1,2.01,12.2,6.03,16.83,7.22,8.34,19.1,12.34,29.89,10.07,10.79-2.27,20.06-10.72,23.3-21.26.72-2.33,1.16-4.8.89-7.22-.21-1.81-.91-4.38-2.39-5.59-1.64-1.35-4.31-.31-6.31.04-5.13.92-10.18,2.24-15.32,3.13Z"/>
    </clipPath>
  </defs>
  <g class="cls-6">
    <circle class="cls-5" cx="91.72" cy="91.72" r="66.93" transform="translate(-37.99 91.72) rotate(-45)"/>
    <g>
      <g class="cls-4">
        <path class="cls-3" d="m53.69,118.4c-1.94-9.26-3.02-18.78-1.99-28.18,1.04-9.4,4.3-18.71,10.33-26,8.53-10.32,22.52-15.83,35.79-14.11,13.27,1.72,25.4,10.62,31.01,22.78,5.79,12.54,4.69,27.14,2.02,40.69-2.24,11.35-5.5,22.5-9.72,33.26-1.86,4.74-4,9.54-7.71,13.02-5.41,5.07-13.35,6.52-20.75,6.08-4.99-.3-9.88-1.35-14.78-2.3-3.35-.65-6.77-.34-8.82-3.33-5.2-7.62-8.49-17.69-11.29-26.4-1.63-5.09-3.01-10.27-4.1-15.5Z"/>
        <g>
          <path class="cls-9" d="m54.24,95.07c1.56.44,1.11,5.32,1.27,6.67.41,3.5,1.05,6.98,1.9,10.4.46,1.86.99,3.74.93,5.66-.17,5.23-7.42,8.26-9.11,2.44-1.49-5.16-.71-12.4.68-17.45.5-1.82,1.62-7.36,3.92-7.73.15-.02.29-.02.41.02Z"/>
          <path class="cls-9" d="m56.78,125.75c.57-.66,1.3-1.32,2.17-1.27.95.05,1.64.91,2.15,1.71,2.63,4.08,4.42,8.7,5.24,13.48.3,1.75.47,3.6-.12,5.28-.59,1.68-2.11,3.14-3.89,3.16-1.54.01-2.89-1.02-3.95-2.13-5.45-5.69-6.94-14-1.6-20.23Z"/>
          <path class="cls-9" d="m53.5,87.27c3.22.1,6.05-.25,8.99-2.59,3.45-2.76,5.63-6.77,7.7-10.67,1.44-2.71,2.91-5.88,1.73-8.72-1.08-2.61-4.21-3.94-7.01-3.6-2.8.33-5.27,2.01-7.29,3.98-2.09,2.04-3.81,4.46-5.08,7.09-.64,1.32-.94,2.79-1.56,4.09-.57,1.21-1.49,2.18-2.03,3.46-.56,1.34-1.19,3.1-1.05,4.58.2,2.17,1.03,2.11,2.8,2.23.97.06,1.89.13,2.79.15Z"/>
          <path class="cls-9" d="m71.52,58.57c-.34.98-.47,2.31.43,2.82.89.5,1.93-.26,2.71-.91,2.26-1.89,4.93-3.29,7.78-4.07.8-.22,1.62-.39,2.36-.76s1.41-.98,1.62-1.78c.22-.81-.06-1.7-.6-2.34-.54-.64-1.3-1.06-2.09-1.34-6.01-2.1-10.45,3.33-12.2,8.39Z"/>
          <path class="cls-9" d="m60.86,121.78c.38,1.95,1.18,3.87,2.57,5.29.57.58,1.35,1.11,2.15.95,1.13-.21,1.6-1.56,1.71-2.7.28-3.16-.75-6.41-2.81-8.83-.97-1.14-3.18-2.51-4.1-.65-.59,1.19.23,4.66.48,5.92Z"/>
          <path class="cls-9" d="m68.87,149.37c1.75,1.88,3.43,3.81,5.05,5.8,1.61,1.99,3.2,4.12,3.8,6.61.6,2.49-.01,5.45-2.11,6.92-4.68,3.3-11.05-2.5-12.01-7.07-.56-2.68,1.49-16.3,5.27-12.26Z"/>
          <path class="cls-9" d="m69.93,143.54c.62,2.66,2.11,5.22,4.47,6.61.98.58,2.36.89,3.18.1.6-.58.64-1.52.59-2.36-.29-4.56-2.17-9.01-5.25-12.39-.45-.49-.96-.98-1.61-1.11-2.88-.55-1.72,7.69-1.38,9.14Z"/>
        </g>
        <g>
          <path class="cls-9" d="m130.24,95.07c-1.56.44-1.11,5.32-1.27,6.67-.41,3.5-1.05,6.98-1.9,10.4-.46,1.86-.99,3.74-.93,5.66.17,5.23,7.42,8.26,9.11,2.44,1.49-5.16.71-12.4-.68-17.45-.5-1.82-1.62-7.36-3.92-7.73-.15-.02-.29-.02-.41.02Z"/>
          <path class="cls-9" d="m127.7,125.75c-.57-.66-1.3-1.32-2.17-1.27-.95.05-1.64.91-2.15,1.71-2.63,4.08-4.42,8.7-5.24,13.48-.3,1.75-.47,3.6.12,5.28.59,1.68,2.11,3.14,3.89,3.16,1.54.01,2.89-1.02,3.95-2.13,5.45-5.69,6.94-14,1.6-20.23Z"/>
          <path class="cls-9" d="m130.97,87.27c-3.22.1-6.05-.25-8.99-2.59-3.45-2.76-5.63-6.77-7.7-10.67-1.44-2.71-2.91-5.88-1.73-8.72,1.08-2.61,4.21-3.94,7.01-3.6,2.8.33,5.27,2.01,7.29,3.98,2.09,2.04,3.81,4.46,5.08,7.09.64,1.32.94,2.79,1.56,4.09.57,1.21,1.49,2.18,2.03,3.46.56,1.34,1.19,3.1,1.05,4.58-.2,2.17-1.03,2.11-2.8,2.23-.97.06-1.89.13-2.79.15Z"/>
          <path class="cls-9" d="m112.96,58.57c.34.98.47,2.31-.43,2.82-.89.5-1.93-.26-2.71-.91-2.26-1.89-4.93-3.29-7.78-4.07-.8-.22-1.62-.39-2.36-.76-.74-.37-1.41-.98-1.62-1.78-.22-.81.06-1.7.6-2.34.54-.64,1.3-1.06,2.09-1.34,6.01-2.1,10.45,3.33,12.2,8.39Z"/>
          <path class="cls-9" d="m123.61,121.78c-.38,1.95-1.18,3.87-2.57,5.29-.57.58-1.35,1.11-2.15.95-1.13-.21-1.6-1.56-1.71-2.7-.28-3.16.75-6.41,2.81-8.83.97-1.14,3.18-2.51,4.1-.65.59,1.19-.23,4.66-.48,5.92Z"/>
          <path class="cls-9" d="m115.61,149.37c-1.75,1.88-3.43,3.81-5.05,5.8-1.61,1.99-3.2,4.12-3.8,6.61-.6,2.49.01,5.45,2.11,6.92,4.68,3.3,11.05-2.5,12.01-7.07.56-2.68-1.49-16.3-5.27-12.26Z"/>
          <path class="cls-9" d="m114.55,143.54c-.62,2.66-2.11,5.22-4.47,6.61-.98.58-2.36.89-3.18.1-.6-.58-.64-1.52-.59-2.36.29-4.56,2.17-9.01,5.25-12.39.45-.49.96-.98,1.61-1.11,2.88-.55,1.72,7.69,1.38,9.14Z"/>
        </g>
      </g>
      <path class="cls-1" d="m78.84,74.18c-.75,5.31,2.09,10.95,6.82,13.47,4.73,2.52,11.02,1.73,14.95-1.92,3.93-3.65,5.17-9.9,2.9-14.76-2.31-4.93-8.35-7.89-13.68-7.97-5.51-.09-10.29,6.2-10.99,11.18Z"/>
      <path d="m91.55,80.68c4.92-.01,5.13-7.28.08-7.38-5.18-.1-5.13,7.39-.08,7.38Z"/>
      <g class="cls-2">
        <path d="m97.66,95.01c-6.87,1.19-14.11,1.56-20.67-.79-2.04-.73-4-1.72-6.1-2.22-2.11-.5-4.48-.44-6.26.79-1.96,1.36-2.81,3.85-3.05,6.23-.62,6.1,2.01,12.2,6.03,16.83,7.22,8.34,19.1,12.34,29.89,10.07,10.79-2.27,20.06-10.72,23.3-21.26.72-2.33,1.16-4.8.89-7.22-.21-1.81-.91-4.38-2.39-5.59-1.64-1.35-4.31-.31-6.31.04-5.13.92-10.18,2.24-15.32,3.13Z"/>
        <path class="cls-1" d="m71.25,100.66c1.06,2.02,3.7,2.9,5.89,2.28,4.89-1.4,6.95-9.33,3.82-13.22-2.33-2.9-7.28-1.81-8.98,1.2-1.36,2.4-2.06,7.25-.73,9.75Z"/>
        <path class="cls-1" d="m85.48,100.28c.12,2.76,1.59,5.66,4.19,6.6,1.72.62,3.64.31,5.4-.18,1.67-.47,3.41-1.17,4.38-2.6,1.24-1.82.9-4.26.39-6.41-.47-1.96-1.05-3.93-2.18-5.59-1.13-1.67-2.89-3.01-4.89-3.21-5.61-.56-7.47,7.24-7.29,11.39Z"/>
        <path class="cls-1" d="m102.74,97.25c.01,1.33.06,2.75.85,3.81,1.28,1.71,3.8,1.67,5.93,1.47,1.4-.13,2.82-.27,4.11-.83s2.43-1.64,2.7-3.01c.23-1.16-.18-2.35-.63-3.45-.83-2.03-1.83-4-2.98-5.88-.8-1.31-1.8-2.66-3.28-3.06-2.08-.56-4.97,1.25-6.13,2.96-1.37,2.02-.59,5.68-.57,8Z"/>
        <path class="cls-1" d="m69.42,111.36c.49-1.22,1.11-2.5,2.27-3.12,1.25-.68,2.86-.37,4.03.43,2.65,1.81,3.22,5.66,2.16,8.69-1.06,3.03-3.37,5.43-5.61,7.73-2.77,2.84-5.5.09-5.72-3.18-.22-3.33,1.65-7.53,2.87-10.54Z"/>
        <path class="cls-1" d="m107.51,115.22c-.8-1.25-1.61-2.64-1.46-4.12.22-2.28,2.53-3.68,4.58-4.7,1.54-.76,3.39-1.51,4.9-.69,1.32.72,1.81,2.35,2.05,3.83.41,2.61.41,5.27.41,7.92,0,2.29-.81,7.91-4.4,6.11-2.57-1.28-4.61-6.04-6.08-8.36Z"/>
      </g>
      <path class="cls-10" d="m85.62,116.56c2.87-.13,5.83,2.11,5.93,4.98.04-2.36,1.49-4.64,3.61-5.67s4.81-.77,6.69.66c3.18,2.41,3.43,7.08,2.84,11.03-.63,4.25-1.9,8.41-3.76,12.29-.94,1.97-2.11,3.95-3.97,5.1-1.9,1.17-4.29,1.3-6.49.89-5.46-1.02-9.83-5.11-11.42-10.39-1.47-4.89-2.65-9.16-.23-13.98,1.29-2.58,3.79-4.77,6.78-4.9Z"/>
      <path class="cls-8" d="m49.06,77.06c-4.27-9.58-3.37-21.29,2.31-30.11.54-.84,1.32-1.76,2.32-1.68,1.37.11,1.83,1.84,2.06,3.19.82,4.74,3.13,9.21,6.53,12.63,1.62,1.63,3.52,3.07,4.64,5.08,1.69,3.04,1.26,6.97-.56,9.93-1.72,2.79-5.68,6.29-8.86,7.27-3.99,1.23-7.05-3.22-8.44-6.32Z"/>
      <path class="cls-8" d="m135.42,77.06c4.27-9.58,3.37-21.29-2.31-30.11-.54-.84-1.32-1.76-2.32-1.68-1.37.11-1.83,1.84-2.06,3.19-.82,4.74-3.13,9.21-6.53,12.63-1.62,1.63-3.52,3.07-4.64,5.08-1.69,3.04-1.26,6.97.56,9.93,1.72,2.79,5.68,6.29,8.86,7.27,3.99,1.23,7.05-3.22,8.44-6.32Z"/>
    </g>
  </g>
</svg>