<?xml version="1.0" encoding="UTF-8"?>
<svg id="OBJECTS" xmlns="http://www.w3.org/2000/svg" xmlns:xlink="http://www.w3.org/1999/xlink" viewBox="0 0 183.44 183.44">
  <defs>
    <style>
      .cls-1 {
        fill: #fff;
      }

      .cls-2 {
        fill: #e8a956;
      }

      .cls-3 {
        fill: #ffd779;
      }

      .cls-4 {
        fill: #332532;
      }

      .cls-5 {
        clip-path: url(#clippath);
      }

      .cls-6 {
        fill: none;
      }

      .cls-7 {
        fill: #ce773c;
      }

      .cls-8 {
        fill: #f3757a;
      }
    </style>
    <clipPath id="clippath">
      <circle class="cls-6" cx="91.72" cy="91.72" r="66.93" transform="translate(-37.99 91.72) rotate(-45)"/>
    </clipPath>
  </defs>
  <g class="cls-5">
    <circle class="cls-4" cx="91.72" cy="91.72" r="66.93" transform="translate(-37.99 91.72) rotate(-45)"/>
    <g>
      <path class="cls-3" d="m74.51,51.93c-3.17,3.45-5.66,7.5-7.38,11.38-2.33,5.27-3.72,10.83-4.82,16.4-1,5.06-2.75,9.71-3.8,14.77-2.35,11.32-3.69,22.82-3.74,34.34,0,.83,0,1.65,0,2.48.08,7.3.66,15.06,5.35,20.97,5.79,7.29,16.28,9.88,26.03,11.2,9.61,1.3,20.05,1.71,28.36-2.88,6.1-3.37,10.31-9.16,12.43-15.38,2.12-6.22,2.3-12.87,1.65-19.36-1.81-18.25-6.38-36.66-10.75-54.56-1.44-5.9-2.97-11.88-6.24-17.13s-8.59-9.76-15.09-10.88c-8.96-1.56-16.5,2.67-22.01,8.68Z"/>
      <g>
        <path class="cls-3" d="m59.11,73.98c-.98-4.17-2.1-8.39-4.42-12.09-2.32-3.7-6.01-6.89-10.57-7.84-.45-.09-.95-.16-1.37.01-.77.32-.93,1.25-.98,2.02-.28,4.44-.56,8.92.16,13.31.72,4.4,2.53,8.77,5.92,11.96,3.22,3.04,7.78,4.96,10.12,8.62.56.88.98,1.83,1.66,2.64,3.6,4.23,7.05-2.18,5.02-5.36-1.04-1.63-2.42-2.96-3.22-4.73-1.2-2.69-1.66-5.72-2.33-8.55Z"/>
        <path class="cls-2" d="m52,77.99c.14-.06.19-.24.14-.38-.05-.15-.18-.26-.31-.36-.43-.37-.85-.77-1.07-1.28-.2-.46-.21-.88.27-1.19.25-.16.55-.27.78-.46.31-.27.44-.68.49-1.08.08-.66-.03-1.4-.49-1.94-.39-.45-1.01-.77-1.46-1.17-.93-.81-1.89-1.79-2.31-2.93-.35-.96-.03-1.84.99-2.3.83-.38,1.74-.46,2.62-.31-1.45-1.67-3.69-2.82-5.98-2.56-1.16.13.12,9.72.39,10.69.56,1.98,1.68,3.8,3.08,5.42.88-.45,1.68-.29,2.63-.16.07,0,.14.02.21,0,0,0,.02,0,.03,0Z"/>
        <path class="cls-7" d="m52.35,65.55c-.21-.33-.45-.65-.71-.95-.88-.15-1.79-.07-2.62.31-2.99,1.36.6,4.91,2.69,6.28-.6,0-1.79-.27-2.09.27-.14.53.07,1.08.4,1.51.19.25.42.46.67.65.09.06.7.54.77.53-.91.2-1.62,1.16-1.19,1.97.2.37.52.68.83.98.17.16.33.31.5.47.09.09.3.4.41.44-1.03-.32-2.07-.26-2.87.15.87,1.02,1.86,1.96,2.88,2.82.76.63,1.85,1.26,2.73.78.82-.44.84-1.49.77-2.35-.4-4.55-.61-9.76-3.16-13.84Z"/>
      </g>
      <g>
        <path class="cls-3" d="m124.33,73.98c.98-4.17,2.1-8.39,4.42-12.09,2.32-3.7,6.01-6.89,10.57-7.84.45-.09.95-.16,1.37.01.77.32.93,1.25.98,2.02.28,4.44.56,8.92-.16,13.31-.72,4.4-2.53,8.77-5.92,11.96-3.22,3.04-7.78,4.96-10.12,8.62-.56.88-.98,1.83-1.66,2.64-3.6,4.23-7.05-2.18-5.02-5.36,1.04-1.63,2.42-2.96,3.22-4.73,1.2-2.69,1.66-5.72,2.33-8.55Z"/>
        <path class="cls-2" d="m131.44,77.99c-.14-.06-.19-.24-.14-.38.05-.15.18-.26.31-.36.43-.37.85-.77,1.07-1.28.2-.46.21-.88-.27-1.19-.25-.16-.55-.27-.78-.46-.31-.27-.44-.68-.49-1.08-.08-.66.03-1.4.49-1.94.39-.45,1.01-.77,1.46-1.17.93-.81,1.89-1.79,2.31-2.93.35-.96.03-1.84-.99-2.3-.83-.38-1.74-.46-2.62-.31,1.45-1.67,3.69-2.82,5.98-2.56,1.16.13-.12,9.72-.39,10.69-.56,1.98-1.68,3.8-3.08,5.42-.88-.45-1.68-.29-2.63-.16-.07,0-.14.02-.21,0,0,0-.02,0-.03,0Z"/>
        <path class="cls-7" d="m131.09,65.55c.21-.33.45-.65.71-.95.88-.15,1.79-.07,2.62.31,2.99,1.36-.6,4.91-2.69,6.28.6,0,1.79-.27,2.09.27.14.53-.07,1.08-.4,1.51-.19.25-.42.46-.67.65-.09.06-.7.54-.77.53.91.2,1.62,1.16,1.19,1.97-.2.37-.52.68-.83.98-.17.16-.33.31-.5.47-.09.09-.3.4-.41.44,1.03-.32,2.07-.26,2.87.15-.87,1.02-1.86,1.96-2.88,2.82-.76.63-1.85,1.26-2.73.78-.82-.44-.84-1.49-.77-2.35.4-4.55.61-9.76,3.16-13.84Z"/>
      </g>
      <g>
        <path class="cls-1" d="m76.72,111.49c-.91,1.43-1.02,3.31-.85,5.17,2.52,1.26,5.27,2.2,8.13,2.82.8-4.6,2.07-9.2,3.09-13.8-4,.61-8.32,2.59-10.37,5.81Z"/>
        <path d="m90.06,105.46c-.58,0-1.15.02-1.73.07-.41.03-.82.09-1.24.15-1.02,4.6-2.29,9.2-3.09,13.8,1.59.34,3.21.59,4.85.73-.06-4.89.47-9.87,1.21-14.75Z"/>
        <path d="m97.26,106.42c.35,4.43.51,8.98,1.2,13.44.88-.14,1.75-.32,2.61-.53-.75-3.99-1.14-8.08-1.25-12.18-.85-.27-1.7-.52-2.56-.73Z"/>
        <path class="cls-1" d="m107.61,111.29c-.94-1.53-2.81-2.36-4.59-3.03-1.05-.4-2.12-.77-3.2-1.11.12,4.1.5,8.18,1.25,12.18,2.5-.6,4.91-1.47,7.13-2.63.02-.26.04-.53.06-.79.12-1.57.19-3.24-.65-4.62Z"/>
        <path class="cls-1" d="m90.06,105.46c-.74,4.88-1.27,9.85-1.21,14.75,3.21.28,6.47.16,9.62-.35-.69-4.46-.86-9-1.2-13.44-2.36-.59-4.77-.97-7.2-.96Z"/>
        <path class="cls-8" d="m82.71,125.74c5.89,1.63,12.54,1.58,18.62.13-.12-.13-.23-.26-.35-.39-5.12-4.21-13.09-3.2-18.27.26Z"/>
        <path d="m75.87,116.66c.14,1.55.47,3.1.71,4.37.16.87.39,1.74.7,2.59,1.7.89,3.52,1.59,5.43,2.12,5.18-3.47,13.15-4.47,18.27-.26.12.13.23.26.35.39,1.88-.45,3.72-1.03,5.45-1.73.09-.25.18-.5.27-.76.7-2.17.97-4.43,1.15-6.68-9.58,4.98-22.64,4.79-32.33-.04Z"/>
        <path class="cls-1" d="m77.28,123.62c.62,1.68,1.54,3.26,2.85,4.58,2.91,2.93,7.38,4.21,11.71,4.4,3.89.17,8-.53,10.96-2.83,1.88-1.46,3.17-3.48,3.97-5.62-9.16,3.71-20.93,3.98-29.5-.52Z"/>
      </g>
      <path class="cls-7" d="m129.42,147.4c.18,0,.37,0,.55,0-.17-3.52-1.4-7.02-3.51-9.97-.61-.86-2.63-2.04-2.84-2.98-.29-1.29,1.89-1.78,2.53-.9-2.56-3.52-4.9-7.18-7-10.95,1.2.66,2.61,1,4.01.96-4.28-3.6-5.25-9.31-7.32-14.28-1.85-4.43-4.83-8.56-9.05-11.31-2.5-1.63-5.44-2.73-8.49-3.08-1.69-.2-4.28-.43-5.83.55-1.55-.98-4.14-.74-5.83-.55-3.05.35-5.99,1.45-8.49,3.08-4.22,2.75-7.2,6.89-9.05,11.31-2.07,4.97-3.03,10.68-7.32,14.28,1.4.04,2.81-.29,4.01-.96-2.09,3.77-4.43,7.43-7,10.95,0,0,2.29-.3,2.62-.48-.37,1.03-.45,1.92-1.05,2.88-2.22,3.55-4.78,6.9-5.52,11.02-.19,1.04-.26,2.17.29,3.1.55.93,1.93,1.51,2.91.96.47.83.3,1.82.23,2.75-.07.93.03,1.99.83,2.57s2.36.03,2.12-.88c.61,2.34,1.52,4.13,3.12,6.04,1.43,1.7,4.12,2.97,2.84-.55.81.59,1.26,1.44,1.65,2.31.4.9.76,1.83,1.42,2.59.66.76,1.72,1.31,2.77,1.13,1.04-.19,1.84-1.34,1.31-2.19.66.39,1.14.99,1.6,1.57.46.58.94,1.18,1.6,1.57.66.4,1.55.55,2.24.2.71-.36.9-1.18.51-1.79,2.61,1.3,6.4,2.68,9.34,1.76.47-.15.97-.34,1.44-.22.53.14.85.62,1.22.99,1.22,1.25,3.32,1.5,5.07,1.02,1.53-.42,2.56-1.33,3.86-2.09.98-.57,2.73-.73,3.52-1.5-.54.53-.24,1.48.45,1.83s1.58.19,2.24-.2c.66-.4,1.13-.99,1.6-1.57.46-.58.94-1.18,1.6-1.57-.52.84.27,2,1.31,2.19,1.04.19,2.1-.37,2.77-1.13.66-.76,1.02-1.69,1.42-2.59.4-.9.89-1.81,1.73-2.41-.2.55-.39,1.13-.3,1.7.1.57.59,1.14,1.22,1.15.77.02,1.27-.7,1.6-1.33,1.07-2.07,1.71-2.2,3.42-3.77.75-.69,1.35-1.55,1.72-2.47.14-.36.24-2.08.44-2.24,2.01-1.55,2.41-4.55.87-6.5.87,0,1.74,0,2.61,0Zm-15.4-13.65c-.45,3.81-1.26,7.46-2.49,11.12-.55,1.64-1.41,3.28-2.94,4.27-1.53.99-3.87,1.09-5.15-.16-.9-.88-1.09-2.19-.91-3.38s.71-2.31,1.07-3.46c.21-.66.3-1.5-.31-1.89-.59-.38-1.43-.03-1.89.47-.46.51-.71,1.15-1.19,1.64-.48.49-1.37.77-1.91.33-.53-.43-.35-1.2-.29-1.85.06-.65-.33-1.51-1.02-1.38-.52.09-.71.66-.88,1.12-.17.46-.64.97-1.12.77-.53-.22-.34-.98-.66-1.42-.37-.5-1.29-.36-1.7.12-.07.08-.12.16-.17.24-.05-.08-.1-.17-.17-.24-.41-.48-1.33-.62-1.7-.12-.32.44-.13,1.2-.66,1.42-.48.2-.95-.32-1.12-.77s-.36-1.03-.88-1.12c-.7-.12-1.08.74-1.02,1.38.06.64.23,1.41-.29,1.85-.53.44-1.42.16-1.91-.33-.48-.49-.73-1.13-1.19-1.64-.46-.51-1.3-.85-1.89-.47-.61.39-.52,1.24-.31,1.89.37,1.15.89,2.27,1.07,3.46.19,1.19,0,2.51-.91,3.38-1.28,1.25-3.62,1.15-5.15.16-1.53-.99-2.39-2.63-2.94-4.27-1.23-3.66-2.04-7.31-2.49-11.12-.42-3.58-.47-7.38,1.36-10.57,2.51-4.37,8.19-6.98,10.03-11.5-.65,2.1-.92,4.3-.78,6.48,1.92-1.42,3.51-3.21,4.63-5.23-.42.76-.85,1.57-.82,2.42.03.85.68,1.75,1.61,1.81,1,.06,1.74-.8,2.25-1.58,1.4-2.15,2.5-4.46,3.28-6.85.79,2.39,1.88,4.7,3.28,6.85.51.78,1.25,1.64,2.25,1.58.93-.05,1.58-.96,1.61-1.81s-.4-1.66-.82-2.42c1.11,2.02,2.7,3.81,4.63,5.23.14-2.18-.13-4.38-.78-6.48,1.84,4.52,7.52,7.13,10.03,11.5,1.83,3.19,1.78,6.99,1.36,10.57Z"/>
      <path class="cls-1" d="m85.93,66.65c-.96,2.27-.25,5,1.83,6.64,2.08,1.64,5.46,2,7.89.76,1.89-.97,3.09-2.79,3.24-4.65.15-1.87-.69-3.75-2.13-5.17-3.49-3.44-9.18-1.47-10.82,2.42Z"/>
      <path d="m90.28,70.42c.4.97,1.86,1.51,2.99,1.11,1.12-.39,1.71-1.62,1.27-2.58-1.16-2.47-5.18-.78-4.25,1.46Z"/>
      <path class="cls-1" d="m85.34,83.84c-.96,2.27-.25,5,1.83,6.64s5.46,2,7.89.76c1.89-.97,3.09-2.79,3.24-4.65.15-1.87-.69-3.75-2.13-5.17-3.49-3.44-9.18-1.47-10.82,2.42Z"/>
      <path d="m89.98,85.7c.4.97,1.86,1.51,2.99,1.11s1.71-1.62,1.27-2.58c-1.16-2.47-5.18-.78-4.25,1.46Z"/>
      <g>
        <path class="cls-1" d="m70.11,78.84c-.96,2.44-.25,5.39,1.83,7.16,2.08,1.76,5.46,2.16,7.89.82,1.89-1.04,3.09-3,3.24-5.02.15-2.01-.69-4.04-2.13-5.57-3.49-3.71-9.18-1.59-10.82,2.61Z"/>
        <path d="m76.54,82.02c.4,1.05,1.86,1.62,2.99,1.2,1.12-.42,1.72-1.74,1.27-2.78-1.16-2.66-5.18-.84-4.25,1.58Z"/>
        <path class="cls-1" d="m72.68,66.26c-.69,1.76-.18,3.9,1.32,5.17s3.94,1.56,5.7.59c1.37-.75,2.23-2.17,2.34-3.62s-.5-2.92-1.54-4.02c-2.52-2.68-6.63-1.15-7.82,1.89Z"/>
        <path d="m77.33,68.57c.29.76,1.35,1.17,2.16.87.81-.31,1.24-1.26.91-2.01-.84-1.92-3.74-.61-3.07,1.14Z"/>
        <path class="cls-1" d="m80.69,57.17c-.57,1.34-.15,2.95,1.09,3.91,1.24.96,3.26,1.18,4.71.45,1.13-.57,1.84-1.64,1.93-2.74.09-1.1-.41-2.21-1.27-3.04-2.09-2.03-5.48-.87-6.46,1.43Z"/>
        <path d="m84.53,58.91c.24.57,1.11.89,1.78.66.67-.23,1.02-.95.76-1.52-.69-1.46-3.1-.46-2.54.86Z"/>
      </g>
      <g>
        <path class="cls-1" d="m114.53,78.84c.96,2.44.25,5.39-1.83,7.16-2.08,1.76-5.46,2.16-7.89.82-1.89-1.04-3.09-3-3.24-5.02-.15-2.01.69-4.04,2.13-5.57,3.49-3.71,9.18-1.59,10.82,2.61Z"/>
        <path d="m108.09,82.02c-.4,1.05-1.86,1.62-2.99,1.2-1.12-.42-1.71-1.74-1.27-2.78,1.16-2.66,5.18-.84,4.25,1.58Z"/>
        <path class="cls-1" d="m111.96,66.26c.69,1.76.18,3.9-1.32,5.17-1.5,1.27-3.94,1.56-5.7.59-1.37-.75-2.23-2.17-2.34-3.62s.5-2.92,1.54-4.02c2.52-2.68,6.63-1.15,7.82,1.89Z"/>
        <path d="m107.31,68.57c-.29.76-1.35,1.17-2.16.87-.81-.31-1.24-1.26-.91-2.01.84-1.92,3.74-.61,3.07,1.14Z"/>
        <path class="cls-1" d="m103.95,57.17c.57,1.34.15,2.95-1.09,3.91-1.24.96-3.26,1.18-4.71.45-1.13-.57-1.84-1.64-1.93-2.74-.09-1.1.41-2.21,1.27-3.04,2.09-2.03,5.48-.87,6.46,1.43Z"/>
        <path d="m100.1,58.91c-.24.57-1.11.89-1.78.66-.67-.23-1.02-.95-.76-1.52.69-1.46,3.1-.46,2.54.86Z"/>
      </g>
    </g>
  </g>
</svg>