<?xml version="1.0" encoding="UTF-8"?>
<svg id="OBJECTS" xmlns="http://www.w3.org/2000/svg" xmlns:xlink="http://www.w3.org/1999/xlink" viewBox="0 0 183.44 183.44">
  <defs>
    <style>
      .cls-1 {
        fill: #fff;
      }

      .cls-2 {
        fill: #efa937;
      }

      .cls-3 {
        clip-path: url(#clippath-1);
      }

      .cls-4 {
        fill: #6b2e24;
      }

      .cls-5 {
        fill: #f8f298;
      }

      .cls-6 {
        fill: #332532;
      }

      .cls-7 {
        clip-path: url(#clippath);
      }

      .cls-8 {
        fill: none;
      }

      .cls-9 {
        fill: #ffc94e;
      }

      .cls-10 {
        fill: #fffcdf;
      }

      .cls-11 {
        fill: #884637;
      }

      .cls-12 {
        fill: #ef8e37;
      }

      .cls-13 {
        fill: #d36f1c;
      }
    </style>
    <clipPath id="clippath">
      <circle class="cls-8" cx="91.72" cy="91.72" r="66.93" transform="translate(-37.99 91.72) rotate(-45)"/>
    </clipPath>
    <clipPath id="clippath-1">
      <path class="cls-8" d="m89.16,42.65c-1.92.19-3.8.49-5.61.89-10.18,2.25-21.19,8.58-27,17.79-2.55,4.06-4.11,7.57-5.35,12.29-1.33,5.07-2.33,10.23-3.07,15.42-2.08,14.52-2.39,29.41-2.09,44.02.1,4.8.22,9.74,1.98,14.18,2.98,7.54,9.6,8.89,16.48,10.55,10.3,2.49,21.25,1.64,31.73,1.57,10.06-.07,20.68.83,30.37-2.4,7.33-2.45,9.12-12.05,10.1-19.14,1.39-10.03.52-20.08-.33-30.11-.88-10.49-2.35-20.93-4.4-31.24-1.63-8.21-3.8-16.7-9.18-22.94-3.76-4.36-8.87-7.31-14.26-9-6.19-1.94-12.94-2.52-19.37-1.89Z"/>
    </clipPath>
  </defs>
  <g class="cls-7">
    <circle class="cls-6" cx="91.72" cy="91.72" r="66.93" transform="translate(-37.99 91.72) rotate(-45)"/>
    <g>
      <g class="cls-3">
        <path class="cls-9" d="m89.16,42.65c-1.92.19-3.8.49-5.61.89-10.18,2.25-21.19,8.58-27,17.79-2.55,4.06-4.11,7.57-5.35,12.29-1.33,5.07-2.33,10.23-3.07,15.42-2.08,14.52-2.39,29.41-2.09,44.02.1,4.8.22,9.74,1.98,14.18,2.98,7.54,9.6,8.89,16.48,10.55,10.3,2.49,21.25,1.64,31.73,1.57,10.06-.07,20.68.83,30.37-2.4,7.33-2.45,9.12-12.05,10.1-19.14,1.39-10.03.52-20.08-.33-30.11-.88-10.49-2.35-20.93-4.4-31.24-1.63-8.21-3.8-16.7-9.18-22.94-3.76-4.36-8.87-7.31-14.26-9-6.19-1.94-12.94-2.52-19.37-1.89Z"/>
        <g>
          <g>
            <path class="cls-2" d="m45.69,111.24c-1.12,2.32-1.48,4.95-1.82,7.53-.12.91-.24,1.83-.36,2.74-.08.64-.17,1.32.07,1.91.16.4.45.73.78.99,1.7,1.4,4.28,1.16,6.08-.1s2.94-3.32,3.7-5.43c.92-2.53,1.4-5.24,1.41-7.95,0-2.54-1.37-5.46-4.25-4.7-2.37.63-4.54,2.78-5.61,5Z"/>
            <path class="cls-2" d="m53.26,97.67c-.31,2.08,1.27,4.06,3.16,4.82.56.22,1.15.37,1.75.34,1.88-.08,3.35-1.81,3.97-3.66.29-.88.45-1.83.24-2.73-1.29-5.65-8.4-3.53-9.11,1.23Z"/>
            <path class="cls-2" d="m51.52,82.82c-.73.43-1.44,1.02-1.67,1.86-.19.72,0,1.48.11,2.22.16,1.15.09,2.34-.21,3.47-.17.63-.39,1.36-.03,1.89.31.47.94.56,1.48.53,2.45-.11,4.75-1.9,5.55-4.31.21-.63.32-1.28.43-1.93.23-1.31.43-2.75-.22-3.9-1.11-1.95-3.96-.72-5.46.16Z"/>
            <path class="cls-2" d="m49.19,70.81c-.56.99-1.1,2.05-1.11,3.2-.01,1.77,1.31,3.34,2.9,3.98s3.36.51,5.02.12c.47-.11.94-.24,1.32-.54.71-.56.94-1.58.89-2.5-.05-.92-.32-1.82-.4-2.74-.09-.98.05-1.98.38-2.9.53-1.45,1.57-2.77,1.52-4.32-.04-1.1-.69-2.15-1.63-2.64-4-2.07-7.38,5.66-8.89,8.34Z"/>
            <path class="cls-2" d="m59.29,56.68c.71.99,2.31.94,2.96,1.99.61.99,0,2.34.36,3.46.44,1.35,2.16,1.76,3.47,1.35,1.58-.5,2.82-1.89,3.43-3.48.61-1.6.64-3.39.33-5.08-.45-2.47-1.92-5.35-4.6-4.07-2.45,1.17-4.58,3.46-5.95,5.85Z"/>
            <path class="cls-2" d="m49.18,130.52c.49-.2,1.03-.38,1.53-.2.75.26,1.07,1.17,1.28,1.96,1.43,5.25,2.84,10.97.89,16.03-.4,1.04-1.03,2.11-2.05,2.47-.88.31-1.86,0-2.65-.5-1.87-1.2-2.86-3.41-3.76-5.5-1.06-2.46-2.71-6.07-1.69-8.83.92-2.49,4.2-4.51,6.45-5.44Z"/>
            <path class="cls-2" d="m53.93,131.33c1.29-.09,2.44-1.03,2.99-2.24.77-1.7.46-6.73-2.38-5.2-1.1.59-1.57,2.04-1.62,3.24-.02.5.5,4.25,1.01,4.21Z"/>
            <path class="cls-2" d="m62.41,66.79c-.95.78-1.67,2-1.54,3.26.02.24.08.48.23.66.23.28.63.32.98.33,1.27.01,2.53-.34,3.62-1,1.35-.82,2.75-2.91,1.14-4.31-1.25-1.09-3.36.19-4.43,1.06Z"/>
            <path class="cls-2" d="m76.06,55.06c.76.27,1.58-.14,2.27-.58,1.74-1.12,3.36-2.58,4.24-4.5.88-1.93.88-4.38-.37-6.06-1.99-2.67-8.62-3.18-9.89.61-.54,1.63.59,3.37,1.17,4.8.62,1.54.8,5.1,2.58,5.73Z"/>
            <path class="cls-2" d="m72.32,60.32c-.15.33-.2.7-.25,1.06-.08.53-.15,1.05-.23,1.58-.07.49-.14,1.01.04,1.47.16.4.48.7.85.9,1.26.67,2.8.12,4.04-.6.61-.35,1.22-.77,1.56-1.4.38-.69.37-1.53.34-2.33-.11-3.77-5-3.75-6.35-.68Z"/>
            <path class="cls-2" d="m58.84,105.75c2.26-1.98,4.22,1.43,2.26,3.91-.47.59-1.07,1.18-1.8,1.15-2.39-.08-2.1-3.12-.96-4.52.17-.21.34-.39.51-.54Z"/>
          </g>
          <g>
            <path class="cls-2" d="m139.96,111.24c1.12,2.32,1.48,4.95,1.82,7.53.12.91.24,1.83.36,2.74.08.64.17,1.32-.07,1.91-.16.4-.45.73-.78.99-1.7,1.4-4.28,1.16-6.08-.1-1.8-1.26-2.94-3.32-3.7-5.43-.92-2.53-1.4-5.24-1.41-7.95,0-2.54,1.37-5.46,4.25-4.7,2.37.63,4.54,2.78,5.61,5Z"/>
            <path class="cls-2" d="m132.38,97.67c.31,2.08-1.27,4.06-3.16,4.82-.56.22-1.15.37-1.75.34-1.88-.08-3.35-1.81-3.97-3.66-.29-.88-.45-1.83-.24-2.73,1.29-5.65,8.4-3.53,9.11,1.23Z"/>
            <path class="cls-2" d="m134.12,82.82c.73.43,1.44,1.02,1.67,1.86.19.72,0,1.48-.11,2.22-.16,1.15-.09,2.34.21,3.47.17.63.39,1.36.03,1.89-.31.47-.94.56-1.48.53-2.45-.11-4.75-1.9-5.55-4.31-.21-.63-.32-1.28-.43-1.93-.23-1.31-.43-2.75.22-3.9,1.11-1.95,3.96-.72,5.46.16Z"/>
            <path class="cls-2" d="m136.45,70.81c.56.99,1.1,2.05,1.11,3.2.01,1.77-1.31,3.34-2.9,3.98s-3.36.51-5.02.12c-.47-.11-.94-.24-1.32-.54-.71-.56-.94-1.58-.89-2.5.05-.92.32-1.82.4-2.74.09-.98-.05-1.98-.38-2.9-.53-1.45-1.57-2.77-1.52-4.32.04-1.1.69-2.15,1.63-2.64,4-2.07,7.38,5.66,8.89,8.34Z"/>
            <path class="cls-2" d="m126.36,56.68c-.71.99-2.31.94-2.96,1.99-.61.99,0,2.34-.36,3.46-.44,1.35-2.16,1.76-3.47,1.35-1.58-.5-2.82-1.89-3.43-3.48-.61-1.6-.64-3.39-.33-5.08.45-2.47,1.92-5.35,4.6-4.07,2.45,1.17,4.58,3.46,5.95,5.85Z"/>
            <path class="cls-2" d="m136.47,130.52c-.49-.2-1.03-.38-1.53-.2-.75.26-1.07,1.17-1.28,1.96-1.43,5.25-2.84,10.97-.89,16.03.4,1.04,1.03,2.11,2.05,2.47.88.31,1.86,0,2.65-.5,1.87-1.2,2.86-3.41,3.76-5.5,1.06-2.46,2.71-6.07,1.69-8.83-.92-2.49-4.2-4.51-6.45-5.44Z"/>
            <path class="cls-2" d="m131.71,131.33c-1.29-.09-2.44-1.03-2.99-2.24-.77-1.7-.46-6.73,2.38-5.2,1.1.59,1.57,2.04,1.62,3.24.02.5-.5,4.25-1.01,4.21Z"/>
            <path class="cls-2" d="m123.23,66.79c.95.78,1.67,2,1.54,3.26-.02.24-.08.48-.23.66-.23.28-.63.32-.98.33-1.27.01-2.53-.34-3.62-1-1.35-.82-2.75-2.91-1.14-4.31,1.25-1.09,3.36.19,4.43,1.06Z"/>
            <path class="cls-2" d="m109.59,55.06c-.76.27-1.58-.14-2.27-.58-1.74-1.12-3.36-2.58-4.24-4.5-.88-1.93-.88-4.38.37-6.06,1.99-2.67,8.62-3.18,9.89.61.54,1.63-.59,3.37-1.17,4.8-.62,1.54-.8,5.1-2.58,5.73Z"/>
            <path class="cls-2" d="m113.32,60.32c.15.33.2.7.25,1.06.08.53.15,1.05.23,1.58.07.49.14,1.01-.04,1.47-.16.4-.48.7-.85.9-1.26.67-2.8.12-4.04-.6-.61-.35-1.22-.77-1.56-1.4-.37-.69-.37-1.53-.34-2.33.11-3.77,5-3.75,6.35-.68Z"/>
            <path class="cls-2" d="m126.81,105.75c-2.26-1.98-4.22,1.43-2.26,3.91.47.59,1.07,1.18,1.8,1.15,2.39-.08,2.1-3.12.96-4.52-.17-.21-.34-.39-.51-.54Z"/>
          </g>
          <path class="cls-2" d="m84.19,45.5c.61,1.6,3.1,1.5,3.87,3.03.34.68.25,1.5.48,2.23.42,1.33,1.89,2.04,3.23,1.97,1.34-.07,2.57-.75,3.72-1.47,1.07-.67,2.18-1.45,2.69-2.64.3-.7.36-1.49.34-2.26-.02-.89-.14-1.78-.47-2.6-.66-1.62-2.14-2.83-3.79-3.21-4-.94-8.22,1.27-10.09,4.95Z"/>
          <path class="cls-2" d="m100.77,51.88c1.94.3,3.24,3.38,1,4.4-.72.33-1.55.06-2.28-.25-.72-.31-1.49-.72-1.79-1.47-.81-2.01,1.34-2.8,2.88-2.7.06,0,.12.01.18.02Z"/>
        </g>
      </g>
      <g>
        <g>
          <g>
            <path class="cls-9" d="m38.67,85.81c-1.89.57-3.64,1.81-4.61,3.6-.85,1.57-1.05,3.45-.94,5.25.1,1.66.47,3.37,1.45,4.69.92,1.23,2.31,2.01,3.74,2.47,2.32.74,4.83.7,7.19.1,1.37-.35,2.73-.91,3.81-1.86,2.89-2.53,3.41-8.03,1.07-11.18-2.44-3.26-8.14-4.12-11.7-3.06Z"/>
            <path class="cls-12" d="m40.99,89.05c-1.38.22-2.65,1.09-3.4,2.32-.29.48-.51,1.1-.29,1.62.29.69,1.15.87,1.86.75.71-.11,1.4-.43,2.12-.35.18.02.37.07.52.18.54.4.3,1.3-.13,1.82-.43.52-1.03.97-1.14,1.65-.17,1.05.97,1.84,1.99,1.95,2.01.23,4.08-1.13,4.75-3.11,1.36-3.99-2.69-7.41-6.28-6.83Z"/>
          </g>
          <path class="cls-5" d="m42.76,109.43c-1.66-2.9-5.24-3.01-7.81-1.45-1.27.77-2.21,2.07-2.61,3.54-.76,2.81.44,5.9,3.1,6.98,1.76.71,4.39.69,5.83-.69.7-.67,1.1-1.61,1.42-2.54.66-1.89,1.06-4.1.07-5.83Zm-2.62,4.53c-.49,1.13-1.78,1.81-2.94,1.53-1.15-.28-2.03-1.51-1.93-2.74.12-1.48,1.77-3.16,3.23-2.67,1.47.49,2.25,2.44,1.63,3.88Z"/>
          <path class="cls-10" d="m35.53,106.36c-.21,1.6-.2,3.45.92,4.57.53.53,1.26.82,1.99.8.3,0,.62-.08.86-.27.33-.26.48-.7.6-1.12.73-2.48,1.22-5.05,1.17-7.64-.03-1.55-1.15-5.08-3.24-3.51-1.63,1.23-2.05,5.25-2.3,7.16Z"/>
        </g>
        <g>
          <g>
            <path class="cls-9" d="m144.77,85.81c1.89.57,3.64,1.81,4.61,3.6.85,1.57,1.05,3.45.94,5.25-.1,1.66-.47,3.37-1.45,4.69-.92,1.23-2.31,2.01-3.74,2.47-2.32.74-4.83.7-7.19.1-1.37-.35-2.73-.91-3.81-1.86-2.89-2.53-3.41-8.03-1.07-11.18,2.44-3.26,8.14-4.12,11.7-3.06Z"/>
            <path class="cls-12" d="m142.45,89.05c1.38.22,2.65,1.09,3.4,2.32.29.48.51,1.1.29,1.62-.29.69-1.15.87-1.86.75-.71-.11-1.4-.43-2.12-.35-.18.02-.37.07-.52.18-.54.4-.3,1.3.13,1.82.43.52,1.03.97,1.14,1.65.17,1.05-.97,1.84-1.99,1.95-2.01.23-4.08-1.13-4.75-3.11-1.36-3.99,2.69-7.41,6.28-6.83Z"/>
          </g>
          <path class="cls-5" d="m140.75,115.26c.32.93.72,1.87,1.42,2.54,1.44,1.38,4.08,1.4,5.83.69,2.66-1.08,3.86-4.17,3.1-6.98-.4-1.47-1.34-2.77-2.61-3.54-2.57-1.55-6.15-1.45-7.81,1.45-.99,1.73-.59,3.94.07,5.83Zm4.18-5.18c1.46-.49,3.11,1.19,3.23,2.67.1,1.23-.77,2.46-1.93,2.74-1.15.28-2.45-.4-2.94-1.53-.62-1.44.16-3.39,1.63-3.88Z"/>
          <path class="cls-10" d="m147.91,106.36c.21,1.6.2,3.45-.92,4.57-.53.53-1.26.82-1.99.8-.3,0-.62-.08-.86-.27-.33-.26-.48-.7-.6-1.12-.73-2.48-1.22-5.05-1.17-7.64.03-1.55,1.15-5.08,3.24-3.51,1.63,1.23,2.05,5.25,2.3,7.16Z"/>
        </g>
      </g>
      <g>
        <path class="cls-1" d="m60.91,77.44c-.77,2.47-.72,5.28.44,7.58,1.37,2.71,4.13,4.44,7,5.08,1.07.24,2.18.35,3.28.25,3.94-.36,7.44-3.65,8.29-7.67.86-4.02-.91-8.48-4.17-10.8-5.91-4.21-12.73-1.19-14.84,5.56Z"/>
        <path d="m69.82,77.64c1.28-.57,2.68-.34,3.08,1.55.23,1.09-.11,2.3-.91,3.04-.8.74-2.04.95-2.99.45-2.77-1.46-1.13-4.17.82-5.04Z"/>
      </g>
      <g>
        <path class="cls-1" d="m81.59,62.51c-.77,2.47-.72,5.28.44,7.58,1.37,2.71,4.13,4.44,7,5.08,1.07.24,2.18.35,3.28.25,3.94-.36,7.44-3.65,8.29-7.67.86-4.02-.91-8.48-4.17-10.8-5.91-4.21-12.73-1.19-14.84,5.56Z"/>
        <path d="m90.49,62.71c1.28-.57,2.68-.34,3.08,1.55.23,1.09-.11,2.3-.91,3.04s-2.04.95-2.99.45c-2.77-1.46-1.13-4.17.82-5.04Z"/>
      </g>
      <g>
        <path class="cls-1" d="m104.19,77.44c-.77,2.47-.72,5.28.44,7.58,1.37,2.71,4.13,4.44,7,5.08,1.07.24,2.18.35,3.28.25,3.94-.36,7.44-3.65,8.29-7.67.86-4.02-.91-8.48-4.17-10.8-5.91-4.21-12.73-1.19-14.84,5.56Z"/>
        <path d="m113.09,77.64c1.28-.57,2.68-.34,3.08,1.55.23,1.09-.11,2.3-.91,3.04-.8.74-2.04.95-2.99.45-2.77-1.46-1.13-4.17.82-5.04Z"/>
      </g>
      <g>
        <path class="cls-1" d="m104,114.61c-.07-.74-.16-1.47-.25-2.2-.07-.5-.15-1.02-.4-1.46-.41-.71-1.19-1.07-1.95-1.32-1.66-.55-3.4-.76-5.13-.91-3.09-.26-6.2-.34-9.31-.23-2.68.1-7.49-.08-8.58,3.19-.19.58-.35,1.22-.47,1.88,7.36,4.84,17.51,4,26.08,1.04Z"/>
        <path d="m103.92,119.95c.02-.11.03-.22.05-.33.22-1.66.18-3.34.02-5.01-8.57,2.96-18.72,3.79-26.08-1.04-.38,2.14-.36,4.58.15,6.71,8.18,3.07,17.45,2.56,25.86-.32Z"/>
        <path d="m83.17,121.71c-.47,1.39-.91,2.8-1.34,4.23.55.4,1.14.76,1.74,1.06.55.27,1.11.5,1.69.7.43-1.83.96-3.65,1.42-5.49-1.18-.11-2.35-.27-3.51-.49Z"/>
        <path class="cls-1" d="m86.68,122.2c-.46,1.84-.99,3.66-1.42,5.49,1.36.47,2.78.76,4.2.97,2.03.3,4.11.44,6.14.09.2-.03.41-.08.61-.12-.46-2.2-.85-4.38-1.1-6.61-2.81.36-5.64.43-8.42.18Z"/>
        <path d="m95.1,122.02c.25,2.22.64,4.41,1.1,6.61,1.09-.24,2.15-.64,3.11-1.21-.33-1.99-.57-3.99-.83-5.97-1.12.24-2.26.43-3.39.57Z"/>
        <path class="cls-1" d="m103.92,119.95c-1.78.61-3.59,1.11-5.43,1.49.26,1.98.5,3.98.83,5.97.64-.38,1.23-.83,1.76-1.36,1.59-1.6,2.48-3.83,2.84-6.1Z"/>
        <path class="cls-1" d="m78.06,120.27c.23.94.55,1.82.97,2.58.69,1.23,1.67,2.26,2.8,3.08.43-1.43.87-2.84,1.34-4.23-1.74-.34-3.45-.81-5.11-1.43Z"/>
      </g>
      <path class="cls-12" d="m68.95,101.77c-7.48,9.16-11.47,21.7-9.31,33.51.52,2.84,1.63,5.91,4.14,7.12,2.78,1.34,6.15-.25,8.2-2.62,5.31-6.16,4.33-16.3,9.62-22.48,3.22-3.76,8.51-5.36,13.22-4.19,4.7,1.17,8.68,4.96,10.41,9.67.96,2.62,1.27,5.44,1.78,8.19.5,2.75,1.25,5.55,2.94,7.74,1.68,2.19,4.49,3.64,7.1,2.93,2.04-.55,3.62-2.32,4.45-4.34.83-2.02.99-4.26.96-6.45-.15-11.78-5.51-22.95-12.69-32.06-3.72-4.73-9.04-10.15-15.33-10.37-6.11-.21-12.36,2.26-17.36,5.76-3.03,2.12-5.76,4.69-8.13,7.58Z"/>
      <g>
        <path class="cls-11" d="m86.78,80.36c-2.02.88-3.74,2.63-4.34,4.82-.78,2.85.51,6.04,2.73,7.89,2.22,1.85,5.21,2.49,8.05,2.28,1.18-.09,2.36-.32,3.41-.87,1.07-.57,1.96-1.45,2.69-2.45,2.02-2.8,2.6-7.04.43-9.71-2.88-3.55-9.15-3.63-12.97-1.96Z"/>
        <path class="cls-4" d="m85.96,86.72c.97-.23,2.16.17,2.74,1.01.61.88.69,2.1.31,3.11-.17.44-.44.87-.85,1.09-.46.25-1.03.2-1.52.01-1.28-.48-2.49-2.4-2.11-3.84.21-.79.77-1.23,1.43-1.39Z"/>
        <path class="cls-4" d="m96.93,86.72c-.97-.23-2.16.17-2.74,1.01-.61.88-.69,2.1-.31,3.11.17.44.44.87.85,1.09.46.25,1.03.2,1.52.01,1.28-.48,2.49-2.4,2.11-3.84-.21-.79-.77-1.23-1.43-1.39Z"/>
      </g>
      <g>
        <path class="cls-13" d="m76.58,101.85c0,1.08.89,2.08,1.92,2.15,1.03.07,2.04-.81,2.16-1.88.05-.42-.03-.84-.17-1.24-.09-.26-.22-.51-.4-.71-1.19-1.35-3.51.04-3.52,1.68Z"/>
        <path class="cls-13" d="m71.9,107.02c0,1.08.89,2.08,1.92,2.15,1.03.07,2.04-.81,2.16-1.88.05-.42-.03-.84-.17-1.24-.09-.26-.22-.51-.4-.71-1.19-1.35-3.51.04-3.52,1.68Z"/>
        <path class="cls-13" d="m67.76,112.76c0,1.08.89,2.08,1.92,2.15,1.03.07,2.04-.81,2.16-1.88.05-.42-.03-.84-.17-1.24-.09-.26-.22-.51-.4-.71-1.19-1.35-3.51.04-3.52,1.68Z"/>
        <path class="cls-13" d="m65.01,120.23c0,1.08.89,2.08,1.92,2.15,1.03.07,2.04-.81,2.16-1.88.05-.42-.03-.84-.17-1.24-.09-.26-.22-.51-.4-.71-1.19-1.35-3.51.04-3.52,1.68Z"/>
        <path class="cls-13" d="m70.79,123.39c0,1.08.89,2.08,1.92,2.15,1.03.07,2.04-.81,2.16-1.88.05-.42-.03-.84-.17-1.24-.09-.26-.22-.51-.4-.71-1.19-1.35-3.51.04-3.52,1.68Z"/>
        <path class="cls-13" d="m74.38,115.63c0,1.08.89,2.08,1.92,2.15,1.03.07,2.04-.81,2.16-1.88.05-.42-.03-.84-.17-1.24-.09-.26-.22-.51-.4-.71-1.19-1.35-3.51.04-3.52,1.68Z"/>
        <path class="cls-13" d="m78.51,110.46c0,1.08.89,2.08,1.92,2.15,1.03.07,2.04-.81,2.16-1.88.05-.42-.03-.84-.17-1.24-.09-.26-.22-.51-.4-.71-1.19-1.35-3.51.04-3.52,1.68Z"/>
        <path class="cls-13" d="m84.3,106.16c0,1.08.89,2.08,1.92,2.15,1.03.07,2.04-.81,2.16-1.88.05-.42-.03-.84-.17-1.24-.09-.26-.22-.51-.4-.71-1.19-1.35-3.51.04-3.52,1.68Z"/>
      </g>
      <g>
        <path class="cls-13" d="m107.68,101.85c0,1.08-.89,2.08-1.92,2.15-1.03.07-2.04-.81-2.16-1.88-.05-.42.03-.84.17-1.24.09-.26.22-.51.4-.71,1.19-1.35,3.51.04,3.52,1.68Z"/>
        <path class="cls-13" d="m112.37,107.02c0,1.08-.89,2.08-1.92,2.15-1.03.07-2.04-.81-2.16-1.88-.05-.42.03-.84.17-1.24.09-.26.22-.51.4-.71,1.19-1.35,3.51.04,3.52,1.68Z"/>
        <path class="cls-13" d="m116.5,112.76c0,1.08-.89,2.08-1.92,2.15-1.03.07-2.04-.81-2.16-1.88-.05-.42.03-.84.17-1.24.09-.26.22-.51.4-.71,1.19-1.35,3.51.04,3.52,1.68Z"/>
        <path class="cls-13" d="m119.26,120.23c0,1.08-.89,2.08-1.92,2.15-1.03.07-2.04-.81-2.16-1.88-.05-.42.03-.84.17-1.24.09-.26.22-.51.4-.71,1.19-1.35,3.51.04,3.52,1.68Z"/>
        <path class="cls-13" d="m113.47,123.39c0,1.08-.89,2.08-1.92,2.15-1.03.07-2.04-.81-2.16-1.88-.05-.42.03-.84.17-1.24.09-.26.22-.51.4-.71,1.19-1.35,3.51.04,3.52,1.68Z"/>
        <path class="cls-13" d="m109.89,115.63c0,1.08-.89,2.08-1.92,2.15-1.03.07-2.04-.81-2.16-1.88-.05-.42.03-.84.17-1.24.09-.26.22-.51.4-.71,1.19-1.35,3.51.04,3.52,1.68Z"/>
        <path class="cls-13" d="m105.76,110.46c0,1.08-.89,2.08-1.92,2.15-1.03.07-2.04-.81-2.16-1.88-.05-.42.03-.84.17-1.24.09-.26.22-.51.4-.71,1.19-1.35,3.51.04,3.52,1.68Z"/>
        <path class="cls-13" d="m99.97,106.16c0,1.08-.89,2.08-1.92,2.15-1.03.07-2.04-.81-2.16-1.88-.05-.42.03-.84.17-1.24.09-.26.22-.51.4-.71,1.19-1.35,3.51.04,3.52,1.68Z"/>
      </g>
    </g>
  </g>
</svg>